<?xml version="1.0" standalone="no"?>
<!DOCTYPE svg PUBLIC "-//W3C//DTD SVG 1.1//EN" "http://www.w3.org/Graphics/SVG/1.1/DTD/svg11.dtd" >
<svg xmlns="http://www.w3.org/2000/svg" xmlns:xlink="http://www.w3.org/1999/xlink" version="1.1">
<metadata>
Created by FontForge 20161003 at Fri Feb 10 22:48:16 2017
 By www-data
Copyright (c) Esselte UK Limited, 2000. All rights reserved.
</metadata>
<defs>
<font id="LetrasetGlobaleBoldTT" horiz-adv-x="864" >
  <font-face 
    font-family="LetrasetGlobaleBoldTT"
    font-weight="400"
    font-stretch="normal"
    units-per-em="2048"
    panose-1="2 0 6 6 3 0 0 2 0 4"
    ascent="1638"
    descent="-410"
    x-height="979"
    cap-height="1366"
    bbox="-215 -463 2146 1901"
    underline-thickness="90"
    underline-position="-250"
    unicode-range="U+0020-FB02"
  />
<missing-glyph horiz-adv-x="1024" 
 />
    <glyph glyph-name=".notdef" horiz-adv-x="1024" 
 />
    <glyph glyph-name=".null" horiz-adv-x="0" 
 />
    <glyph glyph-name="nonmarkingreturn" horiz-adv-x="1024" 
 />
    <glyph glyph-name="space" unicode=" " horiz-adv-x="492" 
 />
    <glyph glyph-name="space" unicode="&#xa0;" horiz-adv-x="492" 
 />
    <glyph glyph-name="exclam" unicode="!" horiz-adv-x="541" 
d="M270 -31q-29 0 -54.5 11t-45 30t-30.5 44.5t-11 54.5t11 54.5t30.5 45t45 30.5t54.5 11q28 0 53.5 -11t45 -30.5t30.5 -45t11 -54.5t-11 -54.5t-30.5 -44.5t-45 -30t-53.5 -11zM178 319l-20 1047h223l-21 -995z" />
    <glyph glyph-name="quotedbl" unicode="&#x22;" horiz-adv-x="711" 
d="M303 979h-190v387h190v-387zM408 979v387h190v-387h-190z" />
    <glyph glyph-name="numbersign" unicode="#" horiz-adv-x="1386" 
d="M758 555l24 240h-196l-25 -240h197zM338 555l27 240h-265l19 184h264l41 387h221l-41 -387h199l39 387h223l-41 -387h307l-71 -184h-254l-27 -240h307l-72 -184h-253l-39 -371h-222l37 371h-196l-39 -371h-221l38 371h-264l19 184h264z" />
    <glyph glyph-name="dollar" unicode="$" horiz-adv-x="1075" 
d="M578 -195h-207v166q-65 7 -129 14.5t-129 18.5l24 209q78 -15 154 -26t153 -11q52 0 103.5 11.5t92.5 37t67 67t26 101.5q0 58 -26.5 97t-70 68.5t-98.5 52.5t-113 48t-113 55.5t-98.5 74.5t-70 106t-26.5 149q0 79 24 140.5t68.5 105t106.5 70t137 35.5v168h206v-166
q65 -5 127 -13.5t125 -19.5l-24 -207q-76 13 -152 24t-153 11q-39 0 -80.5 -5t-76 -20.5t-57 -44.5t-22.5 -78q0 -56 26.5 -94t70 -66.5t99 -51t113 -47t113 -55.5t99 -76t70 -108.5t26.5 -152.5q0 -86 -29.5 -157.5t-81 -125.5t-122 -88.5t-152.5 -46.5v-170z" />
    <glyph glyph-name="percent" unicode="%" horiz-adv-x="1544" 
d="M391 1204q-59 0 -82.5 -45.5t-23.5 -132.5q0 -45 5 -78t17 -54.5t32.5 -32.5t51.5 -11q61 0 83 43.5t22 132.5q0 88 -23 133t-82 45zM1153 516q-59 0 -82.5 -45.5t-23.5 -132.5q0 -45 5 -78t17 -54.5t32.5 -32.5t51.5 -11q62 0 84.5 43t22.5 133q0 88 -24 133t-83 45z
M391 674q-87 0 -146 29.5t-95 78.5t-52 112.5t-16 131.5q0 67 16.5 131t53.5 113.5t96 79.5t143 30t142.5 -30t95 -79.5t53 -113.5t16.5 -131q0 -68 -15.5 -131.5t-51.5 -112.5t-95 -78.5t-145 -29.5zM369 35l639 1372l168 -78l-641 -1372zM1153 -14q-86 0 -145 29.5
t-95.5 78.5t-52.5 112.5t-16 131.5q0 67 16.5 131t53.5 113.5t96 79.5t143 30t143 -30t96 -79.5t53.5 -113.5t16.5 -131q0 -68 -16 -131.5t-52.5 -112.5t-95.5 -78.5t-145 -29.5z" />
    <glyph glyph-name="ampersand" unicode="&#x26;" horiz-adv-x="1737" 
d="M449 877q-10 0 -21.5 -7t-19.5 -12q-30 -23 -49 -58t-30.5 -75t-15.5 -81t-4 -77q0 -20 0.5 -41t3.5 -43q42 42 74.5 76t54 70.5t32.5 81t11 108.5q0 10 -1 20.5t-5 18.5t-11 13.5t-19 5.5zM668 840q37 40 69 73.5t63 65.5t63 65t71 74q54 59 86.5 125.5t32.5 147.5
q0 52 -14.5 101t-32.5 97l168 58q29 -69 50 -140.5t21 -146.5q0 -102 -38.5 -194t-110.5 -165l-713 -718q40 -54 102.5 -85.5t130.5 -31.5q96 0 196.5 19.5t196 58t180.5 94.5t151 130t107 165t48 198h180q-3 -135 -47 -251.5t-118 -212t-173 -170t-213.5 -125t-238.5 -77
t-248 -26.5q-137 0 -236 44t-163 122.5t-94.5 186t-30.5 235.5q0 67 11 136t36.5 132.5t66.5 117.5t101 91q32 20 68 32.5t73 12.5q52 0 90.5 -20t63.5 -53t36 -76t9 -90z" />
    <glyph glyph-name="quotesingle" unicode="'" horiz-adv-x="416" 
d="M113 979v387h190v-387h-190z" />
    <glyph glyph-name="parenleft" unicode="(" horiz-adv-x="676" 
d="M395 604q0 -101 13.5 -219t41.5 -236t70.5 -228t100.5 -197l-189 -99q-66 103 -116 224t-84 248.5t-51 257t-17 249.5t17 249t51 256.5t84 248t116 223.5l189 -96q-58 -87 -100.5 -197.5t-70.5 -228.5t-41.5 -236t-13.5 -219z" />
    <glyph glyph-name="parenright" unicode=")" horiz-adv-x="676" 
d="M281 604q0 101 -13.5 219t-41.5 236t-70.5 228.5t-100.5 197.5l189 96q66 -103 116 -223.5t84 -248t51 -256.5t17 -249t-17 -249.5t-51 -257t-84 -248.5t-116 -224l-189 99q58 87 100.5 197t70.5 228t41.5 236t13.5 219z" />
    <glyph glyph-name="asterisk" unicode="*" horiz-adv-x="649" 
d="M451 1110l98 -131l-129 -92l-94 133l-97 -133l-129 92l99 131l-158 49l49 150l158 -54l-2 166h157l-2 -166l158 54l49 -150z" />
    <glyph glyph-name="plus" unicode="+" horiz-adv-x="1229" 
d="M707 768h378v-174h-378v-387h-185v387h-379v174h379v383h185v-383z" />
    <glyph glyph-name="comma" unicode="," horiz-adv-x="543" 
d="M164 -190q22 37 39.5 78.5t25.5 84.5q-43 14 -69.5 50t-26.5 81q0 28 11 53.5t29.5 45t43.5 30.5t53 11q36 0 63 -13.5t44.5 -36t26 -52t8.5 -62.5q0 -48 -13 -93.5t-34.5 -88t-49.5 -82t-59 -74.5z" />
    <glyph glyph-name="hyphen" unicode="-" horiz-adv-x="528" 
d="M446 461h-364v182h364v-182z" />
    <glyph glyph-name="hyphen" unicode="&#xad;" horiz-adv-x="528" 
d="M446 461h-364v182h364v-182z" />
    <glyph glyph-name="period" unicode="." horiz-adv-x="543" 
d="M272 -31q-28 0 -53 11t-43.5 29.5t-29.5 43.5t-11 53t11 53.5t29.5 44t43.5 29.5t53 11t52.5 -11t43 -29.5t29.5 -44t11 -53.5t-11 -53t-29.5 -43.5t-43 -29.5t-52.5 -11z" />
    <glyph glyph-name="slash" unicode="/" horiz-adv-x="670" 
d="M-6 0l473 1366h211l-473 -1366h-211z" />
    <glyph glyph-name="zero" unicode="0" horiz-adv-x="1112" 
d="M795 754q0 42 -1 92.5t-8 101.5t-21.5 98.5t-41 84.5t-67 59t-99.5 22t-100 -22t-68 -58.5t-41.5 -84t-21 -98.5t-8 -101.5t-1.5 -93.5v-146q0 -43 1 -93.5t8 -101.5t21.5 -98.5t41.5 -84t67.5 -58.5t100.5 -22q59 0 99.5 22t67 58.5t41 84t21.5 98t8 100.5t1 93v148v0z
M557 -31q-94 0 -165 24t-122.5 66.5t-85.5 101.5t-54.5 128t-29 145.5t-8.5 155.5v182q0 79 8.5 155.5t29 145.5t54.5 127.5t85.5 101.5t122.5 67t165 24q93 0 163.5 -24.5t122 -67t85.5 -101.5t54.5 -128.5t29 -146t8.5 -155.5v-182q0 -78 -8.5 -154.5t-29 -145.5
t-54.5 -127.5t-85.5 -101t-122 -66.5t-163.5 -24z" />
    <glyph glyph-name="one" unicode="1" horiz-adv-x="668" 
d="M84 1083l-64 170l297 113h156v-1366h-217v1135z" />
    <glyph glyph-name="two" unicode="2" horiz-adv-x="936" 
d="M78 0l-25 121l385 563q31 45 58 85.5t47.5 82.5t32.5 89t12 106q0 51 -14 83t-40.5 50t-64 24t-84.5 6q-78 0 -155 -9.5t-152 -29.5l-27 183q84 15 166.5 27t167.5 12q92 0 171 -15t136.5 -54t90 -106t32.5 -171q0 -69 -15.5 -129t-42.5 -115t-62 -106.5t-74 -104.5
l-302 -412h555v-180h-796z" />
    <glyph glyph-name="three" unicode="3" horiz-adv-x="897" 
d="M256 -31q-62 0 -121.5 8.5t-118.5 20.5l27 182q48 -14 96 -22t99 -8q75 0 142.5 22.5t118.5 66t81 106t30 142.5q0 73 -35 131t-98 95q-37 -14 -74 -22.5t-75 -16.5l-27 162q35 10 76.5 27.5t77 43t59 59.5t23.5 78q0 45 -13.5 77t-38 52.5t-59 29.5t-76.5 9
q-68 0 -128.5 -10.5t-125.5 -32.5l-26 185q72 17 146.5 28t150.5 11q81 0 153.5 -19t127 -60t86.5 -105t32 -154q0 -76 -32 -136t-91 -108q45 -25 81 -61t61 -79.5t38 -92t13 -99.5q0 -121 -48.5 -216t-129 -160t-185 -99.5t-217.5 -34.5z" />
    <glyph glyph-name="four" unicode="4" horiz-adv-x="1020" 
d="M840 340v-340h-219v340l-539 2l-23 121l256 903h222l-240 -844h324v215l217 47l2 -262h168l-50 -180z" />
    <glyph glyph-name="five" unicode="5" horiz-adv-x="915" 
d="M295 -31q-57 0 -112.5 5.5t-110.5 15.5l24 180q50 -11 99 -17t100 -6q65 0 122 25t99.5 68t67 100.5t24.5 122.5q0 62 -20 105.5t-55.5 71t-84 40t-106.5 12.5q-62 0 -122 -9t-120 -21l70 704h606l-45 -217h-366l-29 -281q18 2 36 2h38q90 0 167.5 -29t134.5 -82.5
t89.5 -128.5t32.5 -167q0 -116 -42.5 -207.5t-116 -155.5t-171.5 -97.5t-209 -33.5z" />
    <glyph glyph-name="six" unicode="6" horiz-adv-x="1047" 
d="M494 676q-39 0 -78 -2t-76 -10q-14 -53 -18.5 -107t-4.5 -108q0 -50 8.5 -103t31.5 -96t62 -70.5t101 -27.5q64 0 104 23.5t63 62.5t31.5 89.5t8.5 104.5q0 119 -56.5 181.5t-176.5 62.5zM520 -31q-112 0 -193 40.5t-133 109.5t-77 160.5t-25 193.5q0 136 43 262t113 241
t158 219.5t178 197.5l139 -119q-90 -96 -170.5 -199t-142.5 -219q27 2 54 2h56q96 0 176 -30t137 -85.5t89 -134.5t32 -176q0 -98 -29.5 -183t-85 -147t-136.5 -97.5t-183 -35.5z" />
    <glyph glyph-name="seven" unicode="7" horiz-adv-x="895" 
d="M233 -39l-36 39q23 87 51 185t60 200t68.5 205t76.5 201.5t83.5 189.5t90.5 168h-598v217h825l23 -158q-80 -131 -148 -279.5t-123 -305t-96.5 -315t-69.5 -308.5z" />
    <glyph glyph-name="eight" unicode="8" horiz-adv-x="1051" 
d="M477 643q-78 -42 -118 -100t-40 -148q0 -47 13 -91t39 -78.5t65 -55t90 -20.5t89.5 20.5t64 55t38.5 78.5t13 91q0 54 -21 97.5t-56 75t-81 51t-96 24.5zM526 1210q-88 0 -133 -49.5t-45 -134.5q0 -48 19 -87t50.5 -68t72.5 -47t85 -23q37 21 61.5 42.5t39 48t20.5 59.5
t6 75q0 85 -44.5 134.5t-131.5 49.5zM526 -31q-102 0 -182.5 27.5t-136.5 81.5t-85.5 133.5t-29.5 183.5q0 48 11.5 94.5t33 89t52.5 79t71 63.5q-34 24 -60 59.5t-43.5 76t-26.5 84t-9 85.5q0 91 31 160t85 115t128 69t161 23q86 0 160 -23t128 -69t85 -115t31 -160
q0 -42 -9 -84.5t-26.5 -82t-43.5 -74t-60 -60.5q40 -26 71.5 -63t52.5 -80.5t32 -91.5t11 -95q0 -104 -29.5 -183.5t-85 -133.5t-135.5 -81.5t-182 -27.5z" />
    <glyph glyph-name="nine" unicode="9" horiz-adv-x="1049" 
d="M526 1208q-64 0 -104 -23.5t-63 -62.5t-31.5 -89.5t-8.5 -104.5q0 -119 57 -181.5t179 -62.5q38 0 77 2t77 10q14 53 18 107t4 108q0 50 -9 102.5t-32 96t-63 71t-101 27.5zM287 113q49 40 97.5 86t93.5 95.5t85.5 102t73.5 107.5q-28 -2 -55.5 -3t-55.5 -1
q-96 0 -176 30.5t-137 86t-89 134.5t-32 177q0 99 29.5 184t85.5 147.5t136.5 98t182.5 35.5q113 0 194 -40.5t133.5 -109.5t77.5 -160.5t25 -193.5q0 -95 -21.5 -184.5t-59.5 -172.5t-90.5 -160t-113.5 -147.5t-128.5 -134.5t-136.5 -121z" />
    <glyph glyph-name="colon" unicode=":" horiz-adv-x="543" 
d="M272 635q-28 0 -53 10.5t-43.5 29t-29.5 43t-11 52.5t11 53t29.5 44t43.5 29.5t53 10.5t52.5 -10.5t43 -29.5t29.5 -44t11 -53t-11 -52.5t-29.5 -43t-43 -29t-52.5 -10.5zM272 -31q-28 0 -53 11t-43.5 29.5t-29.5 43.5t-11 53t11 53.5t29.5 44t43.5 29.5t53 11t52.5 -11
t43 -29.5t29.5 -44t11 -53.5t-11 -53t-29.5 -43.5t-43 -29.5t-52.5 -11z" />
    <glyph glyph-name="semicolon" unicode=";" horiz-adv-x="543" 
d="M270 635q-28 0 -53 10.5t-43.5 29t-29.5 43t-11 52.5t11 53t29.5 44t43.5 29.5t53 10.5t53.5 -10.5t44 -29.5t29.5 -44t11 -53t-11 -52.5t-29.5 -43t-44 -29t-53.5 -10.5zM164 -190q22 37 39.5 78.5t25.5 84.5q-43 14 -69.5 50t-26.5 81q0 28 11 53.5t29.5 45t43.5 30.5
t53 11q36 0 63 -13.5t44.5 -36t26 -52t8.5 -62.5q0 -48 -13 -93.5t-34.5 -88t-49.5 -82t-59 -74.5z" />
    <glyph glyph-name="less" unicode="&#x3c;" horiz-adv-x="1087" 
d="M811 205l-168 -127l-367 467l367 465l168 -127l-268 -338z" />
    <glyph glyph-name="equal" unicode="=" horiz-adv-x="1229" 
d="M143 598h942v-172h-942v172zM143 932h942v-172h-942v172z" />
    <glyph glyph-name="greater" unicode="&#x3e;" horiz-adv-x="1087" 
d="M276 883l168 127l367 -465l-367 -467l-168 127l269 340z" />
    <glyph glyph-name="question" unicode="?" horiz-adv-x="893" 
d="M446 -31q-29 0 -54.5 11t-45 30t-30.5 44.5t-11 54.5q0 28 11 53.5t30.5 44.5t45 30t54.5 11q28 0 53.5 -11t45 -30t30.5 -44.5t11 -53.5q0 -29 -11 -54.5t-30.5 -44.5t-45 -30t-53.5 -11zM530 500q0 -32 4 -64t9 -63l-185 -54q-6 60 -11 120t-5 120q0 72 16 125t40.5 94
t53 74.5t53 66.5t40.5 68.5t16 81.5q0 38 -13.5 64.5t-36 43t-53.5 24t-65 7.5q-71 0 -141 -11.5t-139 -25.5l-27 183q75 17 152.5 28t154.5 11q78 0 150 -17.5t127 -56t88 -100.5t33 -150q0 -68 -19.5 -116t-48.5 -86.5t-62.5 -73t-62.5 -75t-48.5 -92.5t-19.5 -126z" />
    <glyph glyph-name="at" unicode="@" horiz-adv-x="1634" 
d="M819 930q-37 0 -64.5 -18t-48 -47.5t-34 -66.5t-21 -75.5t-11 -75t-3.5 -63.5q0 -20 2 -39t9.5 -33t21.5 -22.5t39 -8.5q47 0 79 23.5t52 62t31.5 86.5t18 97t10.5 94.5t11 77.5q-23 3 -46 5.5t-46 2.5zM1124 317q-57 0 -109.5 26t-86.5 73q-54 -50 -115 -74.5
t-133 -24.5q-60 0 -103.5 19.5t-72 54t-42 82t-13.5 102.5q0 52 9 110.5t28 116t47.5 110t68.5 92.5t91 64t114 24q78 0 155 -14.5t154 -33.5l-51 -368q-3 -22 -6.5 -43.5t-3.5 -42.5q0 -20 3 -39.5t11.5 -35t23.5 -25t40 -9.5q49 0 87 29t63.5 72.5t38.5 93.5t13 92
q0 32 -6.5 63t-17.5 62q-27 75 -74.5 134t-109.5 100t-135.5 63t-151.5 22q-109 0 -207 -41.5t-172.5 -113t-118 -168t-43.5 -207.5q0 -109 39 -205.5t107.5 -168.5t162.5 -114t205 -42q97 0 193.5 7t193.5 21l27 -172q-102 -23 -205.5 -31t-208.5 -8q-99 0 -189 25.5
t-168 72.5t-141 112t-108 144.5t-69.5 170t-24.5 188.5q0 99 26.5 190.5t74.5 170.5t115 143.5t147.5 110.5t172.5 71t191 25q89 0 174 -21.5t161 -61.5t139.5 -96.5t109.5 -127t72 -153.5t26 -175q0 -86 -28 -166t-79.5 -141t-125.5 -97.5t-165 -36.5z" />
    <glyph glyph-name="A" unicode="A" horiz-adv-x="1075" 
d="M406 528h262l-129 420zM733 322h-391l-98 -322h-234l432 1366h191l432 -1366h-234z" />
    <glyph glyph-name="B" unicode="B" horiz-adv-x="1194" 
d="M395 633v-426h244q48 0 87 15.5t67 43.5t43.5 67t15.5 87t-15.5 87t-43.5 67t-67 43.5t-87 15.5h-244zM395 1159v-319h244q72 0 113 44t41 115q0 36 -10.5 65.5t-30.5 50.5t-48.5 32.5t-64.5 11.5h-244zM174 0v1366h510q68 0 129.5 -25t108 -69.5t73.5 -104.5t27 -129
q0 -80 -25 -156.5t-82 -133.5q44 -25 75.5 -61t51.5 -79.5t29.5 -91.5t9.5 -96q0 -84 -22.5 -160t-67.5 -133.5t-113 -92t-159 -34.5h-545z" />
    <glyph glyph-name="C" unicode="C" horiz-adv-x="1053" 
d="M639 -31q-108 0 -189.5 27.5t-140 76.5t-96.5 116.5t-60 146.5t-31 167t-9 179q0 90 9 178t31.5 167t60.5 146.5t96.5 116.5t139.5 77t189 28q90 0 178 -10.5t176 -28.5l-24 -197q-166 29 -330 29q-72 0 -122 -22.5t-83 -61t-51.5 -89t-27.5 -106.5t-11 -114.5t-2 -112.5
t2 -112.5t11 -115t27.5 -107t51.5 -88.5t83 -60.5t122 -22.5q94 0 186.5 6t186.5 23l24 -195q-100 -29 -197 -35t-200 -6z" />
    <glyph glyph-name="D" unicode="D" horiz-adv-x="1245" 
d="M395 1159v-952h150q115 0 184 38.5t105.5 104t47.5 152t11 182.5t-11 182t-47.5 151.5t-105.5 103.5t-184 38h-150zM174 0v1366h401q155 0 261.5 -55t172.5 -148.5t95 -217t29 -261.5t-29 -262.5t-95 -218t-172.5 -148.5t-261.5 -55h-401z" />
    <glyph glyph-name="E" unicode="E" horiz-adv-x="1030" 
d="M940 1159h-545v-328h434v-204h-434v-420h584v-207h-805v1366h815z" />
    <glyph glyph-name="F" unicode="F" horiz-adv-x="954" 
d="M887 1159h-492v-328h381v-204h-381v-627h-221v1366h760z" />
    <glyph glyph-name="G" unicode="G" horiz-adv-x="1239" 
d="M639 -31q-108 0 -189.5 27.5t-140 76.5t-96.5 116t-60 146t-31 167t-9 178t9 178.5t31.5 167.5t60.5 146.5t96.5 116.5t139.5 76.5t189 27.5q112 0 222.5 -9.5t221.5 -27.5l-24 -197q-105 13 -210 20t-210 7q-72 0 -122 -22.5t-83 -60.5t-51.5 -88.5t-27.5 -107t-11 -115
t-2 -112.5t2 -112.5t11 -114.5t27.5 -106.5t51.5 -89t83 -61t122 -22.5q57 0 113.5 2.5t111.5 11.5v478l221 47v-709q-111 -20 -222.5 -27.5t-223.5 -7.5z" />
    <glyph glyph-name="H" unicode="H" horiz-adv-x="1262" 
d="M395 831h471v535h221v-1366h-221v627h-471v-627h-221v1366h221v-535z" />
    <glyph glyph-name="I" unicode="I" horiz-adv-x="569" 
d="M395 0h-221v1366h221v-1366z" />
    <glyph glyph-name="J" unicode="J" horiz-adv-x="569" 
d="M395 125q0 -84 -14.5 -154.5t-48 -133.5t-88 -121t-133.5 -117l-109 141q54 50 87.5 101.5t52 105t25.5 110t7 115.5v1194h221v-1241v0z" />
    <glyph glyph-name="K" unicode="K" horiz-adv-x="1147" 
d="M395 0h-221v1366h221v-459l447 459h305l-608 -629l598 -737h-297l-445 551v-551z" />
    <glyph glyph-name="L" unicode="L" horiz-adv-x="1032" 
d="M395 207h592v-207h-813v1366h221v-1159z" />
    <glyph glyph-name="M" unicode="M" horiz-adv-x="1548" 
d="M467 1366l317 -969l316 969h205l151 -1366h-223l-86 791l-260 -791h-207l-258 791l-86 -791h-223l151 1366h203z" />
    <glyph glyph-name="N" unicode="N" horiz-adv-x="1262" 
d="M410 1366l456 -928v928h221v-1366h-235l-457 905v-905h-221v1366h236z" />
    <glyph glyph-name="O" unicode="O" horiz-adv-x="1276" 
d="M639 1186q-72 0 -122 -22.5t-83 -60.5t-51.5 -88.5t-27.5 -107t-11 -115t-2 -112.5t2 -112.5t11 -115t27.5 -107t51.5 -88.5t83 -60.5t122 -22.5t122 22.5t83 60.5t51.5 88.5t27.5 107t11 115t2 112.5q0 55 -2 113.5t-11 115t-27.5 107t-51.5 88t-83 60t-122 22.5z
M639 -31q-108 0 -189.5 27.5t-140 76.5t-96.5 116t-60 146t-31 167t-9 178t9 178.5t31 167.5t60 146.5t96.5 116.5t139.5 76.5t190 27.5q108 0 189 -27.5t139 -76.5t96 -116.5t60 -146.5t31 -167.5t9 -178.5t-9 -178t-31 -167t-60 -146t-96 -116t-139 -76.5t-189 -27.5z" />
    <glyph glyph-name="P" unicode="P" horiz-adv-x="1153" 
d="M395 1159v-414h215q56 0 97.5 11t69 35.5t41 64t13.5 96.5q0 58 -13.5 97.5t-41.5 64t-69.5 35t-96.5 10.5h-215zM395 0h-221v1366h492q94 0 168 -30t124 -84.5t76.5 -131t26.5 -168.5q0 -90 -26.5 -166t-77.5 -131t-124.5 -85.5t-166.5 -30.5h-271v-539z" />
    <glyph glyph-name="Q" unicode="Q" horiz-adv-x="1274" 
d="M639 1184q-71 0 -120.5 -22t-82.5 -59.5t-51.5 -87t-27.5 -105.5t-11 -115t-2 -115t2 -115t11 -115t27.5 -105.5t51.5 -87t82.5 -59.5t120.5 -22t120.5 22t82.5 59.5t51.5 87t27.5 105.5t11 115t2 115t-2 115t-11 115t-27.5 105.5t-51.5 87t-82.5 59.5t-120.5 22z
M639 -31q-107 -1 -187.5 26t-139 75.5t-97 115.5t-61.5 146t-32 167.5t-9 180.5t9 181t32 168t61.5 146t97 115.5t139 75.5t187.5 27t187.5 -27t139 -75.5t97 -115.5t61.5 -146t32 -168t9 -181q0 -81 -8 -171.5t-32.5 -176t-69.5 -160t-119 -125.5q144 -27 289 -27v-188
q-82 0 -163.5 6t-162.5 25q-66 15 -129 21.5t-131 6.5v78z" />
    <glyph glyph-name="R" unicode="R" horiz-adv-x="1141" 
d="M395 1159v-366h148q57 0 100.5 8t73 28.5t44.5 56t15 91.5q0 54 -15 89.5t-44.5 56t-73 28.5t-100.5 8h-148zM481 586h-86v-586h-221v1366h399q95 0 174.5 -21t137 -67.5t89.5 -120.5t32 -180q0 -65 -16.5 -125.5t-50.5 -111.5t-84.5 -89t-119.5 -57l359 -594h-260z" />
    <glyph glyph-name="S" unicode="S" horiz-adv-x="1071" 
d="M473 -31q-91 0 -181 10.5t-179 24.5l24 209q76 -15 152 -27t153 -12q52 0 103 12t92 38.5t66.5 68.5t25.5 102q0 56 -26.5 95t-69.5 68t-98 52.5t-112 48t-112 55t-98 74t-69.5 104t-26.5 146.5q0 99 35 167t95 110t138.5 60t165.5 18q91 0 178.5 -11t177.5 -26l-24 -205
q-76 12 -152 23.5t-153 11.5q-37 0 -78 -5.5t-75 -21t-56.5 -44.5t-22.5 -77q0 -56 26.5 -93.5t69.5 -65t98 -49.5t112 -46t112 -54t98 -75t69.5 -108t26.5 -152q0 -105 -39.5 -184.5t-106.5 -133.5t-154.5 -81t-184.5 -27z" />
    <glyph glyph-name="T" unicode="T" horiz-adv-x="997" 
d="M926 1159h-320v-1159h-223v1159h-342v207h932z" />
    <glyph glyph-name="U" unicode="U" horiz-adv-x="1257" 
d="M629 -31q-111 0 -195.5 24.5t-142.5 76t-87.5 132.5t-29.5 195v969h221v-969q0 -115 59.5 -168t174.5 -53q114 0 173.5 53t59.5 168v969h221v-969q0 -114 -29.5 -195.5t-87 -133t-142 -75.5t-195.5 -24z" />
    <glyph glyph-name="V" unicode="V" horiz-adv-x="1083" 
d="M541 393l303 973h229l-432 -1366h-199l-432 1366h230z" />
    <glyph glyph-name="W" unicode="W" horiz-adv-x="1620" 
d="M477 426l232 940h202l232 -940l237 940h230l-363 -1366h-217l-221 930l-219 -930h-219l-361 1366h230z" />
    <glyph glyph-name="X" unicode="X" horiz-adv-x="1114" 
d="M557 905l272 461h246l-405 -659l434 -707h-246l-301 506l-301 -506h-246l434 707l-405 659h246z" />
    <glyph glyph-name="Y" unicode="Y" horiz-adv-x="1059" 
d="M528 801l281 565h246l-416 -834v-532h-221v532l-414 834h244z" />
    <glyph glyph-name="Z" unicode="Z" horiz-adv-x="1028" 
d="M977 1221l-627 -1014h611v-207h-887l-23 145l627 1014h-610v207h886z" />
    <glyph glyph-name="bracketleft" unicode="[" horiz-adv-x="678" 
d="M242 1520h383v-189h-158v-1505h158v-186h-383v1880z" />
    <glyph glyph-name="backslash" unicode="\" horiz-adv-x="762" 
d="M-8 1366h227l551 -1366h-227z" />
    <glyph glyph-name="bracketright" unicode="]" horiz-adv-x="678" 
d="M53 -360v186h158v1505h-158v189h383v-1880h-383z" />
    <glyph glyph-name="asciicircum" unicode="^" horiz-adv-x="1182" 
d="M686 1366l311 -754h-225l-182 441l-180 -441h-226l312 754h190z" />
    <glyph glyph-name="underscore" unicode="_" horiz-adv-x="1024" 
d="M0 -143h1024v-185h-1024v185z" />
    <glyph glyph-name="grave" unicode="`" horiz-adv-x="1083" 
d="M317 1278l97 172l352 -221l-66 -121z" />
    <glyph glyph-name="a" unicode="a" horiz-adv-x="1065" 
d="M532 461q-43 0 -82 -11t-68.5 -33.5t-47 -57t-17.5 -80.5q0 -36 13.5 -60t36 -39t51 -21.5t59.5 -6.5q51 0 105 16.5t92 50.5l2 234q-35 5 -71.5 6.5t-72.5 1.5zM702 37q-26 -18 -56.5 -30.5t-63.5 -20.5t-66.5 -11.5t-64.5 -3.5q-69 0 -133.5 17t-114.5 53t-80.5 91.5
t-30.5 131.5q0 91 35.5 161.5t95 119t136.5 73.5t161 25q38 0 78 -2.5t78 -7.5v37q0 47 -9.5 77.5t-30 48t-53 24.5t-77.5 7q-78 0 -154 -10t-151 -24l-27 180q93 15 184.5 26t184.5 11q71 0 134.5 -19.5t111.5 -58.5t76 -97t28 -135q0 -115 -2 -230t-2 -230
q0 -65 13.5 -122.5t35.5 -117.5h-207z" />
    <glyph glyph-name="b" unicode="b" horiz-adv-x="1063" 
d="M592 829q-27 0 -56.5 -6.5t-58.5 -17.5t-56 -24.5t-50 -28.5v-555q32 -14 69 -22.5t72 -8.5q56 0 95 16t64.5 43t40.5 64t22 79t9 86.5t2 88.5q0 27 -1 58.5t-5.5 63.5t-13.5 61.5t-26 52.5t-43 36.5t-64 13.5zM553 -14q-53 0 -105.5 9.5t-103.5 24.5l-18 -20h-172v1407
l217 45v-504q57 29 123 45.5t131 16.5q106 0 173.5 -40t106 -105.5t52.5 -149.5t14 -172q0 -100 -21.5 -199.5t-71 -179t-129 -129t-196.5 -49.5z" />
    <glyph glyph-name="c" unicode="c" horiz-adv-x="842" 
d="M528 -31q-120 0 -203 41t-134.5 111.5t-75 165.5t-23.5 202t23.5 201.5t75 165.5t134.5 112.5t203 41.5q66 0 132 -11t131 -28l-27 -183q-59 17 -117.5 28t-118.5 11q-69 0 -110.5 -32.5t-64 -82.5t-29.5 -109.5t-7 -113.5t7 -113.5t29.5 -109.5t64 -83t110.5 -33
q68 0 134.5 10t132.5 30l26 -182q-74 -21 -145.5 -30t-147.5 -9z" />
    <glyph glyph-name="d" unicode="d" horiz-adv-x="1079" 
d="M694 809q-40 9 -80 14.5t-82 5.5q-75 0 -118 -37.5t-64.5 -94t-27 -122t-5.5 -122.5q0 -42 3 -94.5t18.5 -98.5t48 -77t90.5 -31q54 0 112.5 20t104.5 51v586v0zM719 41q-56 -35 -124.5 -52.5t-131.5 -17.5q-43 0 -85.5 3.5t-80.5 19.5q-45 18 -77.5 50.5t-55.5 74.5
t-37 90.5t-22 98.5t-10.5 98t-2.5 90q0 93 26.5 184.5t79 165t131 119t183.5 45.5q93 0 182 -19v398h217v-1186q0 -54 10 -103t27 -100h-200z" />
    <glyph glyph-name="e" unicode="e" horiz-adv-x="1055" 
d="M526 827q-46 0 -83 -17t-62.5 -46.5t-39 -68.5t-13.5 -83h397q0 44 -13.5 83t-39 68.5t-62.5 46.5t-84 17zM317 430q5 -47 17 -96.5t36 -90.5t61.5 -67t94.5 -26q76 0 149 10t144 30l27 -182q-79 -21 -158.5 -30t-161.5 -9q-117 0 -199.5 44t-134.5 118t-76 170t-24 201
q0 106 24.5 198.5t77 161.5t134.5 108.5t198 39.5q132 0 217 -48.5t134 -129.5t67.5 -185.5t18.5 -216.5h-646v0z" />
    <glyph glyph-name="f" unicode="f" horiz-adv-x="606" 
d="M166 1040q0 80 17.5 139.5t46 101t66 68t77.5 41t79.5 20t73.5 5.5q26 0 53 -4.5t48.5 -10t35 -10l13.5 -4.5l-23 -174q-67 12 -112.5 11.5t-75.5 -10.5t-46.5 -28.5t-24.5 -42t-9.5 -50t-1.5 -52.5v-61h209l-51 -180h-158v-799h-217v799h-100v180h100v61v0z" />
    <glyph glyph-name="g" unicode="g" horiz-adv-x="1010" 
d="M623 10q-65 14 -131 23t-138 18q-11 -20 -24.5 -45t-24.5 -51.5t-18.5 -53t-7.5 -48.5q0 -41 26 -63t62 -32.5t74 -12t63 -1.5q38 0 81.5 3.5t80.5 18.5t61.5 45.5t24.5 84.5q0 31 -11.5 51.5t-29.5 32.5t-41 18.5t-47 11.5zM494 834q-82 0 -131.5 -45t-49.5 -130
q0 -83 48.5 -129.5t132.5 -46.5q83 0 132.5 45.5t49.5 130.5t-49.5 130t-132.5 45zM874 803q13 -40 18 -74.5t5 -69.5q0 -94 -29.5 -160t-83 -108t-127.5 -61t-163 -19q-25 0 -51 0.5t-54 3.5q-9 -6 -16.5 -17t-7.5 -24q0 -11 7.5 -18t18.5 -11t23 -6t20 -3q44 -8 89 -13.5
t91 -13.5q70 -12 134.5 -30t114 -52.5t79 -89.5t29.5 -141q0 -97 -39.5 -160t-103.5 -100.5t-146 -52.5t-166 -15q-45 0 -96.5 2t-102.5 10t-98 24t-83 43t-57.5 68t-21.5 99q0 31 13.5 69t34 77t43.5 76t42 66q-24 19 -37.5 43t-13.5 50q0 23 7.5 46t20.5 45.5t29 44.5
t33 42q-78 55 -108.5 126.5t-30.5 159.5q0 95 30 161.5t83.5 108t127.5 60.5t163 19q52 0 103 -5t99 -24h308v-176h-130v0z" />
    <glyph glyph-name="h" unicode="h" horiz-adv-x="1092" 
d="M727 602q0 42 -3.5 83t-18 73t-44.5 51.5t-83 19.5q-51 0 -106.5 -17t-100.5 -40v-772h-217v1407l217 45v-494q59 23 124 37.5t128 14.5q97 0 159 -32.5t98 -88t50 -129.5t14 -158v-602h-217v602z" />
    <glyph glyph-name="i" unicode="i" horiz-adv-x="518" 
d="M150 969l217 45v-1014h-217v969zM258 1118q-29 0 -53.5 11t-43.5 29.5t-29.5 43.5t-10.5 53t10.5 53.5t29.5 44t43.5 29.5t53.5 11q28 0 53 -11t44 -29.5t29.5 -44t10.5 -53.5t-10.5 -53t-29.5 -43.5t-44 -29.5t-53 -11z" />
    <glyph glyph-name="j" unicode="j" horiz-adv-x="518" 
d="M258 1118q-29 0 -53.5 11t-43.5 29.5t-29.5 43.5t-10.5 53t10.5 53.5t29.5 44t43.5 29.5t53.5 11q28 0 53 -11t44 -29.5t29.5 -44t10.5 -53.5t-10.5 -53t-29.5 -43.5t-44 -29.5t-53 -11zM-16 -289q90 83 128 188.5t38 225.5v844l217 45v-934q0 -88 -17 -159.5
t-51.5 -132.5t-86.5 -114t-122 -104z" />
    <glyph glyph-name="k" unicode="k" horiz-adv-x="1014" 
d="M371 0h-217v1407l217 45v-793l354 320h287l-520 -465l522 -514h-301l-342 336v-336z" />
    <glyph glyph-name="l" unicode="l" horiz-adv-x="516" 
d="M397 -41q-68 24 -115.5 45.5t-77.5 53t-43.5 80.5t-13.5 128v1141l218 45v-1198q0 -30 3.5 -50t12.5 -35t26 -27t44 -27z" />
    <glyph glyph-name="m" unicode="m" horiz-adv-x="1579" 
d="M1214 602q0 36 -2 76t-14.5 73.5t-39 55.5t-75.5 22q-22 0 -47.5 -5.5t-51.5 -13.5t-50.5 -18.5t-44.5 -19.5q8 -42 10 -84.5t2 -85.5v-602h-217v602q0 36 -2.5 76t-15 73.5t-39 55.5t-74.5 22q-21 0 -45 -5t-48 -13.5t-47 -19t-42 -21.5v-770h-217v838q0 34 -8 66.5
t-19 64.5l190 45q11 -14 21 -28.5t16 -31.5q60 25 127 40.5t133 15.5q25 0 52.5 -4.5t53 -14t48 -24t39.5 -33.5q44 18 84 32.5t80.5 24t83 14.5t90.5 5q89 0 145 -36.5t87.5 -94.5t43 -131t11.5 -146v-602h-218v602z" />
    <glyph glyph-name="n" unicode="n" horiz-adv-x="1092" 
d="M727 602q0 42 -3.5 83t-18 73t-44.5 51.5t-83 19.5q-51 0 -106 -16t-101 -41v-772h-217v838q0 34 -8 66.5t-19 64.5l190 45q11 -14 21 -28.5t16 -31.5q62 25 132.5 40.5t136.5 15.5q97 0 159 -32.5t98 -88t50 -129.5t14 -158v-602h-217v602z" />
    <glyph glyph-name="o" unicode="o" horiz-adv-x="1055" 
d="M528 827q-73 0 -115 -31.5t-63.5 -81t-27 -109.5t-5.5 -116q0 -58 4.5 -118.5t25 -109.5t63 -80t118.5 -31q75 0 117.5 31t62.5 80t24.5 109.5t4.5 118.5q0 56 -5.5 116t-26.5 109.5t-63 81t-114 31.5zM528 -31q-122 0 -205.5 40t-134.5 110.5t-73.5 165t-22.5 204.5
q0 107 23.5 201.5t75.5 165.5t135 112.5t202 41.5t202 -41.5t134.5 -112.5t75 -165.5t23.5 -201.5q0 -110 -22.5 -204.5t-73.5 -165t-134.5 -110.5t-204.5 -40z" />
    <glyph glyph-name="p" unicode="p" horiz-adv-x="1057" 
d="M573 829q-24 0 -51.5 -5.5t-55.5 -14.5t-54 -20t-47 -23v-586q40 -11 79.5 -15.5t81.5 -4.5q54 0 91 17.5t61 47t37 69t18.5 82.5t6.5 87t1 84q0 43 -5 92.5t-22 91.5t-50.5 70t-90.5 28zM352 950q57 25 123.5 42.5t128.5 17.5q107 0 176.5 -38.5t110.5 -102.5t57.5 -148
t16.5 -174q0 -68 -8.5 -136.5t-28 -131.5t-51.5 -117.5t-78.5 -95t-108.5 -63.5t-143 -23q-47 0 -91.5 5t-90.5 13v-356h-211v1196q0 34 -8 67.5t-19 65.5l192 45q10 -16 19 -32.5t14 -33.5z" />
    <glyph glyph-name="q" unicode="q" horiz-adv-x="1063" 
d="M692 782q-35 14 -76 22.5t-79 8.5q-74 0 -118 -34.5t-67 -87t-30 -115t-7 -119.5q0 -28 1 -61t6.5 -67t15.5 -65.5t27.5 -56t44.5 -39t65 -14.5q54 0 111.5 14.5t105.5 40.5v573v0zM692 25q-62 -25 -131 -38.5t-137 -13.5q-66 0 -116.5 21t-87 57t-61.5 83.5t-39.5 101.5
t-21 110.5t-6.5 110.5q0 65 10 130.5t31 125t54 111t79.5 89t107 59t136.5 21.5q53 0 106.5 -9.5t104.5 -25.5l22 21h166v-1337h-217v383z" />
    <glyph glyph-name="r" unicode="r" horiz-adv-x="664" 
d="M627 784q-22 11 -44 21t-46 10q-41 0 -85 -14t-81 -31v-770h-217v838q0 34 -8 67t-19 64l190 45q13 -14 22 -28.5t15 -31.5q62 25 131 40.5t136 15.5q21 0 42.5 -1t41.5 -3l-78 -222v0z" />
    <glyph glyph-name="s" unicode="s" horiz-adv-x="887" 
d="M401 -31q-80 0 -158.5 11.5t-156.5 23.5l27 182l124 -24t125 -12q31 0 67.5 6.5t67.5 22.5t51.5 42.5t20.5 65.5q0 36 -20 60.5t-53.5 43t-75.5 34.5t-86.5 34t-86.5 41t-75.5 57t-53.5 81t-20 112q0 79 32 129.5t83.5 79.5t116.5 40t131 11q77 0 153.5 -11t151.5 -26
l-25 -185q-66 19 -134 29t-136 10q-21 0 -47 -1t-48 -8t-37 -22.5t-15 -45.5q0 -35 20 -59t53.5 -42t75.5 -33.5t86.5 -33t86.5 -41t75.5 -57.5t53.5 -82t20 -115q0 -80 -34.5 -139.5t-90.5 -99.5t-126.5 -59.5t-142.5 -19.5z" />
    <glyph glyph-name="t" unicode="t" horiz-adv-x="592" 
d="M381 799v-455q0 -53 6.5 -84.5t24 -51.5t48.5 -34.5t79 -32.5l-50 -174q-77 23 -137.5 48t-101.5 63.5t-62.5 96.5t-21.5 147v477h-100v180h100v254l215 47v-301h207l-51 -180h-156z" />
    <glyph glyph-name="u" unicode="u" horiz-adv-x="1094" 
d="M737 47q-60 -32 -130.5 -54t-139.5 -22q-96 0 -158 32.5t-98 88t-50 129t-14 156.5v592l218 45v-637q0 -42 3.5 -82.5t18 -72t44 -51t81.5 -19.5q51 0 105.5 16t99.5 41v760l217 45v-828q0 -48 11 -94.5t30 -91.5h-205z" />
    <glyph glyph-name="v" unicode="v" horiz-adv-x="887" 
d="M543 0h-193l-340 969l215 45l221 -686l211 651h230z" />
    <glyph glyph-name="w" unicode="w" horiz-adv-x="1376" 
d="M1069 0h-203l-174 575l-174 -575h-203l-305 969l215 45l191 -676l174 641h205l174 -641l180 641h227z" />
    <glyph glyph-name="x" unicode="x" horiz-adv-x="1004" 
d="M506 365l-240 -365h-266l389 526l-332 443l230 45l219 -328l196 293h261l-338 -453l389 -526h-266z" />
    <glyph glyph-name="y" unicode="y" horiz-adv-x="920" 
d="M176 -332q39 30 66.5 68.5t48 82t35.5 90t30 91.5q-9 11 -17 24t-13 27l-316 918l221 45l232 -709l219 674h238l-347 -987q-24 -70 -46 -132t-50.5 -117.5t-68.5 -106.5t-101 -99z" />
    <glyph glyph-name="z" unicode="z" horiz-adv-x="891" 
d="M831 180v-180h-765l-25 121l496 678h-480v180h768l25 -121l-496 -678h477z" />
    <glyph glyph-name="braceleft" unicode="{" horiz-adv-x="678" 
d="M422 -360q-39 0 -69 15t-50.5 40.5t-31.5 59t-11 69.5v559q0 29 -10 48.5t-27 31.5t-40 17t-48 5v187q25 0 48 5t40 17t27 31.5t10 48.5v561q0 36 11 69t31.5 59t50.5 41.5t69 15.5h176v-187l-96 -2q-19 0 -31 -5.5t-12 -27.5v-524q0 -59 -25 -109.5t-72 -84.5
q48 -36 72.5 -87t24.5 -110v-522q0 -14 5 -21t13.5 -9.5t18.5 -2.5h22l80 -2v-186h-176v0z" />
    <glyph glyph-name="bar" unicode="|" horiz-adv-x="594" 
d="M184 1520h226v-1880h-226v1880z" />
    <glyph glyph-name="braceright" unicode="}" horiz-adv-x="678" 
d="M80 -360v186l80 2h20q11 0 19.5 2.5t14 9.5t5.5 21v522q0 59 24 110t72 87q-48 34 -72 84.5t-24 109.5v524q0 22 -12 28.5t-31 6.5h-96v187h176q38 0 68 -15.5t51 -41.5t32 -59t11 -69v-561q0 -29 9.5 -48.5t26.5 -31.5t40 -17t49 -5v-187q-26 0 -49 -5t-40 -17
t-26.5 -31.5t-9.5 -48.5v-559q0 -36 -11.5 -69.5t-32.5 -59t-51 -40.5t-67 -15h-176z" />
    <glyph glyph-name="asciitilde" unicode="~" horiz-adv-x="1235" 
d="M793 379q-52 0 -100 16.5t-93.5 36.5t-90 36.5t-89.5 16.5q-18 0 -37.5 -12t-36.5 -28.5t-31.5 -35t-23.5 -30.5l-101 149q23 24 52 50t61.5 47t67 35t69.5 14q52 0 100 -16.5t93.5 -37t90 -37t89.5 -16.5q18 0 37.5 12t36.5 29t31.5 35.5t23.5 30.5l100 -150
q-22 -24 -50.5 -49.5t-61 -46.5t-67.5 -35t-70 -14z" />
    <glyph glyph-name="exclamdown" unicode="&#xa1;" horiz-adv-x="541" 
d="M268 1393q29 0 55 -11t45.5 -30.5t30.5 -45t11 -53.5q0 -29 -11 -54.5t-30.5 -45t-45.5 -30.5t-55 -11q-28 0 -53.5 11t-44.5 30.5t-30 45t-11 54.5q0 28 11 53.5t30 45t44.5 30.5t53.5 11zM360 1047l21 -1047h-223l20 993z" />
    <glyph glyph-name="cent" unicode="&#xa2;" horiz-adv-x="848" 
d="M625 -166h-185v139q-99 17 -166 66.5t-107.5 120.5t-57.5 157.5t-17 176.5t17 176t57.5 156.5t107.5 120t166 65.5v139h185v-137q43 -5 85.5 -14.5t86.5 -20.5l-27 -184q-59 17 -118.5 29t-119.5 12q-70 0 -112 -33t-64.5 -83.5t-29.5 -111t-7 -114.5t7 -114t29.5 -111
t64.5 -84t112 -33t136.5 10t132.5 28l26 -182q-49 -15 -99.5 -24.5t-102.5 -12.5v-137z" />
    <glyph glyph-name="sterling" unicode="&#xa3;" horiz-adv-x="1165" 
d="M1071 1145q-71 22 -147 31.5t-150 9.5q-76 0 -120 -31.5t-66 -82t-27.5 -112.5t-5.5 -122h311v-207h-311v-424h463v-207h-885v207h201v424h-187v207h187q0 75 8.5 145t28.5 131.5t52.5 113t81.5 88t115.5 57t153.5 20.5q79 0 161.5 -9t160.5 -32l-25 -207v0z" />
    <glyph glyph-name="currency" unicode="&#xa4;" horiz-adv-x="1147" 
d="M891 -29q-47 -3 -91.5 -2.5t-86.5 0.5q-121 0 -209.5 35t-149.5 97.5t-97.5 149.5t-53.5 191h-125v181h110q-3 58 0 116h-110v181h127q16 104 52 191t97 149.5t149.5 97.5t209.5 35q78 0 162.5 -8t189.5 -29l-25 -193q-100 16 -178 21.5t-149 5.5q-69 0 -117.5 -18
t-81.5 -52.5t-52.5 -85t-31.5 -114.5h586v-181h-604v-59v-57h604v-181h-586q11 -65 31 -115t53 -84.5t81.5 -52.5t117.5 -18q81 0 170.5 4t199.5 23l25 -191q-68 -18 -118.5 -26t-98.5 -11z" />
    <glyph glyph-name="yen" unicode="&#xa5;" horiz-adv-x="1171" 
d="M1057 797v-185h-320l-41 -80v-28h361v-185h-361v-319h-221v319h-358v185h358v28l-39 80h-319v185h227l-283 569h244l281 -565l280 565h244l-283 -569h230z" />
    <glyph glyph-name="brokenbar" unicode="&#xa6;" horiz-adv-x="559" 
d="M377 440v-489h-193v489h193zM375 1413v-489h-191v489h191z" />
    <glyph glyph-name="section" unicode="&#xa7;" horiz-adv-x="1085" 
d="M520 760q-19 -1 -36.5 -6t-30.5 -15.5t-21 -26t-8 -36.5q0 -36 22 -62.5t54.5 -46t68 -34.5t62.5 -27q21 17 31 40.5t10 51.5q0 33 -14 57.5t-36.5 43.5t-49.5 33.5t-52 27.5zM504 -166q-82 0 -161.5 12.5t-160.5 26.5l27 193l126 -26t128 -13q34 0 70.5 5t67.5 19
t51 40.5t20 68.5q0 40 -20.5 68.5t-54 51.5t-76.5 42.5t-87.5 41t-87.5 47.5t-76.5 62.5t-54 86t-20.5 116.5q0 66 21 118.5t77 90.5q-54 45 -76 104t-22 125q0 84 30.5 138t81.5 85.5t117 43.5t137 12q81 0 157.5 -12t153.5 -29l-24 -195q-68 20 -136.5 31.5t-138.5 11.5
q-24 0 -50 -1.5t-48 -10t-36.5 -26t-14.5 -48.5q0 -35 20.5 -60t54 -45t76.5 -38t87.5 -39.5t87.5 -49t76.5 -66.5t54 -92t20.5 -126q0 -59 -18.5 -113t-59.5 -96q41 -45 59.5 -107.5t18.5 -121.5q0 -86 -33.5 -148t-89 -101.5t-127 -58t-147.5 -18.5z" />
    <glyph glyph-name="dieresis" unicode="&#xa8;" horiz-adv-x="1085" 
d="M766 1120q-29 0 -53.5 11t-43.5 29.5t-29.5 43.5t-10.5 53t10.5 53.5t29.5 44t43.5 29.5t53.5 11q28 0 53 -11t44 -29.5t29.5 -44t10.5 -53.5t-10.5 -53t-29.5 -43.5t-44 -29.5t-53 -11zM322 1120q-29 0 -54 11t-43.5 29.5t-29.5 43.5t-11 53t11 53.5t29.5 44t43.5 29.5
t54 11q28 0 53 -11t43.5 -29.5t29.5 -44t11 -53.5t-11 -53t-29.5 -43.5t-43.5 -29.5t-53 -11z" />
    <glyph glyph-name="copyright" unicode="&#xa9;" horiz-adv-x="1649" 
d="M821 289q-89 0 -151 31.5t-100.5 85t-56 124.5t-17.5 150t17.5 150.5t56 125.5t100.5 85.5t151 31.5q54 0 107.5 -10.5t105.5 -26.5l-26 -194q-45 14 -93.5 26.5t-93.5 12.5q-40 0 -61.5 -20.5t-32 -51t-12.5 -65.5t-2 -64t2 -63.5t12.5 -64.5t32 -50.5t61.5 -20.5
q53 0 104.5 11t102.5 26l27 -192q-112 -37 -234 -37zM825 1186q-104 0 -196 -40t-161 -109t-109 -161t-40 -196q0 -105 40 -197t109 -160.5t161 -108.5t196 -40q105 0 197 40t160.5 108.5t108.5 160.5t40 197q0 104 -40 196t-108.5 161t-160.5 109t-197 40zM825 -31
q-98 0 -189 25.5t-170 71.5t-144 111t-111.5 144t-72 170t-25.5 189t25.5 189t72 170.5t111.5 144.5t144 111.5t170 72t189 25.5t189 -25.5t170 -72t144 -111.5t111 -144.5t71.5 -170.5t25.5 -189t-25.5 -189t-71.5 -170t-111 -144t-144 -111t-170 -71.5t-189 -25.5z" />
    <glyph glyph-name="ordfeminine" unicode="&#xaa;" horiz-adv-x="676" 
d="M350 1077q-38 0 -67 -20t-29 -64q0 -31 21 -42t47 -11q23 0 46 7.5t42 21.5v104q-14 3 -29 3.5t-31 0.5zM434 850q-29 -17 -61.5 -24t-63.5 -7q-39 0 -74.5 10.5t-62.5 31.5t-43 52.5t-16 73.5q0 64 26 107t68.5 67.5t95.5 32t107 2.5v4q0 43 -15.5 57.5t-58.5 14.5
q-42 0 -83 -7.5t-83 -15.5l-16 123q49 8 99.5 14.5t102.5 6.5q40 0 75 -12t60.5 -34.5t40.5 -55t15 -74.5q0 -62 -1 -122t-1 -122q0 -35 9 -70t21 -69h-129z" />
    <glyph glyph-name="guillemotleft" unicode="&#xab;" horiz-adv-x="1094" 
d="M604 199l-166 -123l-327 416l327 415l166 -125l-231 -290zM983 199l-166 -123l-328 416l328 415l166 -125l-231 -290z" />
    <glyph glyph-name="logicalnot" unicode="&#xac;" 
d="M770 1352h-676v-1338h676v1338zM80 0v1366h704v-1366h-704z" />
    <glyph glyph-name="registered" unicode="&#xae;" horiz-adv-x="1649" 
d="M743 911v-153h58q28 0 47.5 3.5t31.5 12.5t17.5 24t5.5 38q0 44 -22.5 59.5t-79.5 15.5h-58zM760 612h-17v-305h-153v750h227q52 0 96.5 -12t77.5 -38t51.5 -68.5t18.5 -102.5q0 -33 -8 -65t-24 -59.5t-40.5 -49.5t-58.5 -35l192 -318l-180 -2zM1331 680q0 104 -40 196
t-109 161t-161 109t-196 40t-196 -40t-161 -109t-109 -161t-40 -196t40 -196t109 -161t161 -109t196 -40t196 40t161 109t109 161t40 196zM1536 680q0 -97 -25.5 -187.5t-72 -169.5t-112 -144.5t-144.5 -112t-169.5 -72t-187.5 -25.5q-98 0 -188.5 25.5t-169.5 72
t-144.5 112t-112 144.5t-72 169.5t-25.5 187.5q0 98 25.5 188.5t72 170t112 144.5t144.5 112t169.5 72.5t188.5 25.5q97 0 187.5 -25.5t169.5 -72.5t144.5 -112t112 -144.5t72 -170t25.5 -188.5z" />
    <glyph glyph-name="macron" unicode="&#xaf;" horiz-adv-x="1085" 
d="M811 1354v-183h-537v183h537z" />
    <glyph glyph-name="macron" unicode="&#x2c9;" horiz-adv-x="1085" 
d="M811 1354v-183h-537v183h537z" />
    <glyph glyph-name="degree" unicode="&#xb0;" horiz-adv-x="561" 
d="M281 1274q-20 0 -31.5 -8.5t-17 -22t-6.5 -30t-1 -31.5v-62q0 -15 2 -29t8 -25t17 -17.5t29 -6.5q19 0 30 8t16.5 21t7 28.5t1.5 30.5q0 17 1 42t-3 47.5t-16 38.5t-37 16zM281 895q-60 0 -101.5 21t-67.5 57t-37.5 83.5t-11.5 100.5q0 52 12 100t38.5 84.5t67.5 58
t100 21.5q58 0 99 -21.5t67.5 -58t38.5 -84.5t12 -100q0 -53 -11.5 -100.5t-37.5 -83.5t-67 -57t-101 -21z" />
    <glyph glyph-name="plusminus" unicode="&#xb1;" 
d="M770 1352h-676v-1338h676v1338zM80 0v1366h704v-1366h-704z" />
    <glyph glyph-name="twosuperior" unicode="&#xb2;" horiz-adv-x="709" 
d="M57 526l-20 109q15 15 38 36.5t51.5 48t60 56t63.5 60.5t62.5 63t54.5 60.5t40 52.5t21 41q5 15 7.5 31.5t2.5 33.5q0 35 -12.5 58t-33.5 36t-48 18t-55 5q-59 0 -117 -9.5t-115 -23.5l-22 158q65 14 130.5 23.5t133.5 9.5q70 0 131 -14.5t106.5 -47t72 -85t26.5 -128.5
q0 -62 -31 -121t-78 -114.5t-103.5 -105.5t-107.5 -93l369 -2v-156h-627z" />
    <glyph glyph-name="threesuperior" unicode="&#xb3;" horiz-adv-x="707" 
d="M262 494q-45 0 -87 7t-85 15l23 164q34 -11 69 -19t70 -8q38 0 73 11.5t62 33.5t43 54.5t16 74.5q0 34 -14 59t-39 48q-29 -8 -56.5 -14t-53.5 -11l-25 146q17 5 41.5 15t47.5 23.5t39.5 30t16.5 35.5q0 45 -23.5 59.5t-62.5 14.5q-45 0 -87.5 -10t-84.5 -23l-24 162
q52 12 103 21.5t104 9.5q54 0 102 -13.5t84 -42t57 -71.5t21 -101q0 -38 -14.5 -71t-40.5 -70q45 -45 70.5 -94.5t25.5 -106.5q0 -78 -30.5 -139t-82 -103t-118.5 -64.5t-140 -22.5z" />
    <glyph glyph-name="acute" unicode="&#xb4;" horiz-adv-x="1083" 
d="M317 1229l355 221l94 -172l-381 -170z" />
    <glyph glyph-name="mu" unicode="&#xb5;" horiz-adv-x="1094" 
d="M739 49q-63 -34 -132 -56t-140 -22q-26 0 -52 3t-50 10v-277h-218v1262l218 45v-637q0 -43 3.5 -83.5t18 -72t44 -50.5t81.5 -19q54 0 106 16t99 41v760l217 45v-828q0 -43 12 -93.5t29 -92.5h-207q-15 21 -29 49z" />
    <glyph glyph-name="mu" unicode="&#x3bc;" horiz-adv-x="1094" 
d="M739 49q-63 -34 -132 -56t-140 -22q-26 0 -52 3t-50 10v-277h-218v1262l218 45v-637q0 -43 3.5 -83.5t18 -72t44 -50.5t81.5 -19q54 0 106 16t99 41v760l217 45v-828q0 -43 12 -93.5t29 -92.5h-207q-15 21 -29 49z" />
    <glyph glyph-name="paragraph" unicode="&#xb6;" horiz-adv-x="1249" 
d="M113 1022q0 70 27 133t74 109.5t109.5 74t133.5 27.5h182v-690h-182q-71 0 -133.5 27t-109.5 74t-74 110t-27 135zM852 1366h223v-1532h-223v1532z" />
    <glyph glyph-name="periodcentered" unicode="&#xb7;" horiz-adv-x="477" 
d="M250 567q-29 0 -53.5 11t-43.5 29.5t-29.5 43t-10.5 51.5q0 28 10.5 53.5t29.5 44t43.5 29.5t53.5 11q28 0 52.5 -11t43 -29.5t29 -44t10.5 -53.5q0 -27 -10.5 -51.5t-29 -43t-43 -29.5t-52.5 -11z" />
    <glyph glyph-name="periodcentered" unicode="&#x2219;" horiz-adv-x="477" 
d="M250 567q-29 0 -53.5 11t-43.5 29.5t-29.5 43t-10.5 51.5q0 28 10.5 53.5t29.5 44t43.5 29.5t53.5 11q28 0 52.5 -11t43 -29.5t29 -44t10.5 -53.5q0 -27 -10.5 -51.5t-29 -43t-43 -29.5t-52.5 -11z" />
    <glyph glyph-name="cedilla" unicode="&#xb8;" horiz-adv-x="1085" 
d="M459 -348q12 15 28 36t29.5 44.5t23 47t9.5 42.5q0 14 -14 22t-32.5 12.5t-36.5 5.5t-26 1l23 155q40 0 83.5 -8.5t79 -28.5t58.5 -53t23 -82q0 -38 -12.5 -76.5t-32 -74.5t-45 -69t-50.5 -60z" />
    <glyph glyph-name="onesuperior" unicode="&#xb9;" horiz-adv-x="709" 
d="M270 524v641l-137 -41l-55 148l246 94h133v-842h-187z" />
    <glyph glyph-name="ordmasculine" unicode="&#xba;" horiz-adv-x="678" 
d="M338 1270q-34 0 -53 -16t-28 -40.5t-11 -53.5t-2 -54q0 -27 1.5 -56.5t10.5 -53.5t28 -40t54 -16t54.5 16t28.5 40t11 53.5t2 56.5q0 25 -2 54t-11.5 53.5t-29 40.5t-53.5 16zM338 819q-66 0 -111 22.5t-73 61.5t-40 91.5t-12 111.5q0 58 12.5 110t41 91.5t73 62.5
t109.5 23t110.5 -23t73.5 -62.5t40.5 -91.5t12.5 -110q0 -59 -12.5 -111.5t-40 -91.5t-73 -61.5t-111.5 -22.5z" />
    <glyph glyph-name="guillemotright" unicode="&#xbb;" horiz-adv-x="1094" 
d="M489 782l166 125l328 -415l-328 -416l-166 123l232 293zM111 782l165 125l328 -415l-328 -416l-165 123l231 293z" />
    <glyph glyph-name="onequarter" unicode="&#xbc;" horiz-adv-x="1915" 
d="M453 -358h-213l948 1878h209zM346 524v641l-137 -41l-55 148l245 94h133v-840zM1147 195l-12 43l-17 59l150 541h192l-139 -490l129 -2v125l186 39v-164h111l-45 -166h-66v-180h-186v180h-299z" />
    <glyph glyph-name="onehalf" unicode="&#xbd;" horiz-adv-x="1915" 
d="M295 524v641l-137 -41l-56 148l246 94h133v-840zM1176 0l-23 109q15 14 39 36t52.5 49t60 57t63.5 62q31 31 61.5 62.5t54.5 60t40.5 52.5t21.5 40t7.5 32.5t2.5 33.5q0 35 -13 58t-34 36t-48.5 18t-55.5 5q-59 0 -116.5 -9.5t-114.5 -23.5l-23 160q66 12 132 21t132 9
q70 0 131.5 -14t107 -46t71.5 -84.5t26 -129.5q0 -61 -30.5 -120.5t-77.5 -115.5t-102.5 -106.5t-106.5 -93.5h366v-158h-624zM401 -358h-213l949 1878h209z" />
    <glyph glyph-name="threequarters" unicode="&#xbe;" horiz-adv-x="1913" 
d="M504 -358h-211l946 1878h209zM274 494q-45 0 -86.5 7t-85.5 15l23 164q34 -11 69 -19t70 -8q39 0 74 11.5t62 33.5t43 54.5t16 74.5q0 34 -14.5 59t-38.5 48q-29 -8 -57 -14t-54 -11l-25 146q17 5 42 15t48 23.5t39.5 30t16.5 35.5q0 45 -24 59.5t-62 14.5
q-45 0 -87.5 -10t-84.5 -23l-25 162q53 12 103.5 21.5t103.5 9.5q54 0 102 -13.5t84 -42t57 -71.5t21 -101q0 -38 -14.5 -71t-40.5 -70q45 -45 70.5 -94.5t25.5 -106.5q0 -78 -30.5 -139t-82 -103t-118.5 -64.5t-140 -22.5zM1688 180v-180h-187v180h-299l-35 117l152 541
h192l-139 -490l129 -2v125l187 39v-164h110l-45 -166h-65z" />
    <glyph glyph-name="questiondown" unicode="&#xbf;" horiz-adv-x="893" 
d="M446 1393q29 0 55 -11t45.5 -30.5t30.5 -45t11 -53.5q0 -29 -11 -54.5t-30.5 -45t-45.5 -30.5t-55 -11q-28 0 -53.5 11t-44.5 30.5t-30 45t-11 54.5q0 28 11 53.5t30 45t44.5 30.5t53.5 11zM362 862q0 32 -3.5 63.5t-8.5 63.5l185 51q6 -58 11 -117.5t5 -121.5
q0 -72 -16 -124.5t-40.5 -94t-53 -74.5t-53 -66t-40.5 -69t-16 -82q0 -38 13.5 -64t36 -42.5t53 -23.5t65.5 -7q71 0 141 10.5t139 25.5l27 -182q-75 -18 -152.5 -28.5t-154.5 -10.5q-79 0 -151 17t-127 55.5t-87.5 99.5t-32.5 150q0 51 11 91t29.5 72.5t42 60t47.5 54
t47.5 55t42 63t29.5 77.5t11 98z" />
    <glyph glyph-name="Agrave" unicode="&#xc0;" horiz-adv-x="1075" 
d="M406 528h262l-129 420zM733 322h-391l-98 -322h-234l432 1366h191l432 -1366h-234zM230 1667l97 172l352 -221l-66 -121z" />
    <glyph glyph-name="Aacute" unicode="&#xc1;" horiz-adv-x="1075" 
d="M406 528h262l-129 420zM733 322h-391l-98 -322h-234l432 1366h191l432 -1366h-234zM389 1618l355 221l94 -172l-381 -170z" />
    <glyph glyph-name="Acircumflex" unicode="&#xc2;" horiz-adv-x="1075" 
d="M406 528h262l-129 420zM733 322h-391l-98 -322h-234l432 1366h191l432 -1366h-234zM876 1638l-84 -141l-258 125l-256 -125l-84 141l340 203z" />
    <glyph glyph-name="Atilde" unicode="&#xc3;" horiz-adv-x="1075" 
d="M406 528h262l-129 420zM733 322h-391l-98 -322h-234l432 1366h191l432 -1366h-234zM651 1532q-34 0 -66.5 8.5t-64.5 18t-64.5 18t-66.5 8.5q-12 0 -26 -9.5t-27.5 -22.5t-25.5 -26.5t-18 -21.5l-104 156q22 20 46.5 40t51.5 36t56 26t61 10q34 0 66.5 -8.5t65 -18
t65 -18t67.5 -8.5q11 0 24.5 9.5t27 22.5t25 26t17.5 20l105 -154q-23 -20 -47 -40t-50.5 -36t-56 -26t-61.5 -10z" />
    <glyph glyph-name="Adieresis" unicode="&#xc4;" horiz-adv-x="1075" 
d="M406 528h262l-129 420zM733 322h-391l-98 -322h-234l432 1366h191l432 -1366h-234zM757 1509q-29 0 -53.5 11t-43.5 29.5t-29.5 43.5t-10.5 53t10.5 53.5t29.5 44t43.5 29.5t53.5 11q28 0 53 -11t44 -29.5t29.5 -44t10.5 -53.5t-10.5 -53t-29.5 -43.5t-44 -29.5t-53 -11z
M313 1509q-29 0 -54 11t-43.5 29.5t-29.5 43.5t-11 53t11 53.5t29.5 44t43.5 29.5t54 11q28 0 53 -11t43.5 -29.5t29.5 -44t11 -53.5t-11 -53t-29.5 -43.5t-43.5 -29.5t-53 -11z" />
    <glyph glyph-name="Aring" unicode="&#xc5;" horiz-adv-x="1075" 
d="M520 1772q-16 0 -30.5 -6.5t-25.5 -17.5t-17.5 -25.5t-6.5 -30.5t6.5 -30.5t17.5 -25.5t25.5 -17.5t30.5 -6.5q32 0 55 24t23 56t-23 56t-55 24zM520 1483q-43 0 -81 16.5t-66.5 45t-45 66.5t-16.5 81t16.5 81t45 66.5t66.5 45t81 16.5q42 0 80 -16.5t66 -45t44.5 -66.5
t16.5 -81t-16.5 -81t-44.5 -66.5t-66 -45t-80 -16.5zM391 528h262l-129 420zM719 322h-391l-99 -322h-233l432 1366h190l433 -1366h-234z" />
    <glyph glyph-name="AE" unicode="&#xc6;" horiz-adv-x="1683" 
d="M563 528h264v445zM1593 1159h-544v-328h434v-204h-434v-420h581v-207h-803v322h-387l-190 -322h-250l811 1366h831z" />
    <glyph glyph-name="Ccedilla" unicode="&#xc7;" horiz-adv-x="1053" 
d="M770 -29q16 -38 16 -77q0 -46 -14.5 -91.5t-37.5 -88t-53 -81t-60 -69.5l-125 98q13 18 31 43t34.5 53t27.5 56t11 51q0 16 -16.5 25.5t-38.5 15t-43.5 7t-30.5 1.5l10 72q-79 20 -137 60t-98.5 93.5t-66.5 118.5t-40.5 135.5t-20 143.5t-5.5 143q0 90 9 178.5
t31.5 167.5t60.5 146.5t96.5 116.5t139.5 76.5t189 27.5q90 0 178 -10.5t176 -28.5l-24 -197q-84 14 -165 21.5t-165 7.5q-72 0 -122 -22.5t-83 -60.5t-51.5 -88.5t-27.5 -107t-11 -115t-2 -112.5t2 -112.5t11 -114.5t27.5 -106.5t51.5 -89t83 -61t122 -22.5q94 0 186.5 6.5
t186.5 22.5l24 -195q-66 -18 -132 -26.5t-134 -10.5z" />
    <glyph glyph-name="Egrave" unicode="&#xc8;" horiz-adv-x="1030" 
d="M940 1159h-545v-328h434v-204h-434v-420h584v-207h-805v1366h815zM265 1667l97 172l352 -221l-66 -121z" />
    <glyph glyph-name="Eacute" unicode="&#xc9;" horiz-adv-x="1030" 
d="M940 1159h-545v-328h434v-204h-434v-420h584v-207h-805v1366h815zM378 1618l355 221l94 -172l-381 -170z" />
    <glyph glyph-name="Ecircumflex" unicode="&#xca;" horiz-adv-x="1030" 
d="M940 1159h-545v-328h434v-204h-434v-420h584v-207h-805v1366h815zM924 1638l-84 -141l-258 125l-256 -125l-84 141l340 203z" />
    <glyph glyph-name="Edieresis" unicode="&#xcb;" horiz-adv-x="1030" 
d="M940 1159h-545v-328h434v-204h-434v-420h584v-207h-805v1366h815zM805 1509q-29 0 -53.5 11t-43.5 29.5t-29.5 43.5t-10.5 53t10.5 53.5t29.5 44t43.5 29.5t53.5 11q28 0 53 -11t44 -29.5t29.5 -44t10.5 -53.5t-10.5 -53t-29.5 -43.5t-44 -29.5t-53 -11zM361 1509
q-29 0 -54 11t-43.5 29.5t-29.5 43.5t-11 53t11 53.5t29.5 44t43.5 29.5t54 11q28 0 53 -11t43.5 -29.5t29.5 -44t11 -53.5t-11 -53t-29.5 -43.5t-43.5 -29.5t-53 -11z" />
    <glyph glyph-name="Igrave" unicode="&#xcc;" horiz-adv-x="569" 
d="M0 1663l96 172l353 -221l-66 -121zM395 0h-221v1366h221v-1366z" />
    <glyph glyph-name="Iacute" unicode="&#xcd;" horiz-adv-x="569" 
d="M121 1614l354 221l94 -172l-381 -170zM395 0h-221v1366h221v-1366z" />
    <glyph glyph-name="Icircumflex" unicode="&#xce;" horiz-adv-x="569" 
d="M625 1630l-78 -155l-264 104l-263 -104l-77 155l340 172zM395 0h-221v1366h221v-1366z" />
    <glyph glyph-name="Idieresis" unicode="&#xcf;" horiz-adv-x="569" 
d="M508 1505q-29 0 -53.5 11t-43.5 29.5t-29.5 43.5t-10.5 53t10.5 53.5t29.5 44t43.5 29.5t53.5 11q28 0 53 -11t44 -29.5t29.5 -44t10.5 -53.5t-10.5 -53t-29.5 -43.5t-44 -29.5t-53 -11zM63 1505q-28 0 -53 11t-43.5 29.5t-29.5 43.5t-11 53t11 53.5t29.5 44t43.5 29.5
t53 11t53.5 -11t44 -29.5t29.5 -44t11 -53.5t-11 -53t-29.5 -43.5t-44 -29.5t-53.5 -11zM395 0h-221v1366h221v-1366z" />
    <glyph glyph-name="Eth" unicode="&#xd0;" horiz-adv-x="1255" 
d="M406 1161v-330h327v-204h-327v-422h149q110 0 178 35t106 98t51 151t13 195q0 106 -13 194t-51 151t-106 97.5t-178 34.5h-149zM184 0v627h-184v204h184v535h402q105 0 187.5 -26t144.5 -72t105 -110t69.5 -140t38.5 -161t12 -173q0 -89 -12 -174.5t-38.5 -161.5
t-69.5 -139.5t-105 -110t-144.5 -72.5t-187.5 -26h-402z" />
    <glyph glyph-name="Ntilde" unicode="&#xd1;" horiz-adv-x="1262" 
d="M410 1366l456 -928v928h221v-1366h-235l-457 905v-905h-221v1366h236zM756 1532q-34 0 -66.5 8.5t-64.5 18t-64.5 18t-66.5 8.5q-12 0 -26 -9.5t-27.5 -22.5t-25.5 -26.5t-18 -21.5l-104 156q22 20 46.5 40t51.5 36t56 26t61 10q34 0 66.5 -8.5t65 -18t65 -18t67.5 -8.5
q11 0 24.5 9.5t27 22.5t25 26t17.5 20l105 -154q-23 -20 -47 -40t-50.5 -36t-56 -26t-61.5 -10z" />
    <glyph glyph-name="Ograve" unicode="&#xd2;" horiz-adv-x="1276" 
d="M639 1186q-72 0 -122 -22.5t-83 -60.5t-51.5 -88.5t-27.5 -107t-11 -115t-2 -112.5t2 -112.5t11 -115t27.5 -107t51.5 -88.5t83 -60.5t122 -22.5t122 22.5t83 60.5t51.5 88.5t27.5 107t11 115t2 112.5q0 55 -2 113.5t-11 115t-27.5 107t-51.5 88t-83 60t-122 22.5z
M639 -31q-108 0 -189.5 27.5t-140 76.5t-96.5 116t-60 146t-31 167t-9 178t9 178.5t31 167.5t60 146.5t96.5 116.5t139.5 76.5t190 27.5q108 0 189 -27.5t139 -76.5t96 -116.5t60 -146.5t31 -167.5t9 -178.5t-9 -178t-31 -167t-60 -146t-96 -116t-139 -76.5t-189 -27.5z
M346 1667l97 172l352 -221l-66 -121z" />
    <glyph glyph-name="Oacute" unicode="&#xd3;" horiz-adv-x="1276" 
d="M639 1186q-72 0 -122 -22.5t-83 -60.5t-51.5 -88.5t-27.5 -107t-11 -115t-2 -112.5t2 -112.5t11 -115t27.5 -107t51.5 -88.5t83 -60.5t122 -22.5t122 22.5t83 60.5t51.5 88.5t27.5 107t11 115t2 112.5q0 55 -2 113.5t-11 115t-27.5 107t-51.5 88t-83 60t-122 22.5z
M639 -31q-108 0 -189.5 27.5t-140 76.5t-96.5 116t-60 146t-31 167t-9 178t9 178.5t31 167.5t60 146.5t96.5 116.5t139.5 76.5t190 27.5q108 0 189 -27.5t139 -76.5t96 -116.5t60 -146.5t31 -167.5t9 -178.5t-9 -178t-31 -167t-60 -146t-96 -116t-139 -76.5t-189 -27.5z
M473 1618l355 221l94 -172l-381 -170z" />
    <glyph glyph-name="Ocircumflex" unicode="&#xd4;" horiz-adv-x="1276" 
d="M639 1186q-72 0 -122 -22.5t-83 -60.5t-51.5 -88.5t-27.5 -107t-11 -115t-2 -112.5t2 -112.5t11 -115t27.5 -107t51.5 -88.5t83 -60.5t122 -22.5t122 22.5t83 60.5t51.5 88.5t27.5 107t11 115t2 112.5q0 55 -2 113.5t-11 115t-27.5 107t-51.5 88t-83 60t-122 22.5z
M639 -31q-108 0 -189.5 27.5t-140 76.5t-96.5 116t-60 146t-31 167t-9 178t9 178.5t31 167.5t60 146.5t96.5 116.5t139.5 76.5t190 27.5q108 0 189 -27.5t139 -76.5t96 -116.5t60 -146.5t31 -167.5t9 -178.5t-9 -178t-31 -167t-60 -146t-96 -116t-139 -76.5t-189 -27.5z
M979 1638l-84 -141l-258 125l-256 -125l-84 141l340 203z" />
    <glyph glyph-name="Otilde" unicode="&#xd5;" horiz-adv-x="1276" 
d="M639 1186q-72 0 -122 -22.5t-83 -60.5t-51.5 -88.5t-27.5 -107t-11 -115t-2 -112.5t2 -112.5t11 -115t27.5 -107t51.5 -88.5t83 -60.5t122 -22.5t122 22.5t83 60.5t51.5 88.5t27.5 107t11 115t2 112.5q0 55 -2 113.5t-11 115t-27.5 107t-51.5 88t-83 60t-122 22.5z
M639 -31q-108 0 -189.5 27.5t-140 76.5t-96.5 116t-60 146t-31 167t-9 178t9 178.5t31 167.5t60 146.5t96.5 116.5t139.5 76.5t190 27.5q108 0 189 -27.5t139 -76.5t96 -116.5t60 -146.5t31 -167.5t9 -178.5t-9 -178t-31 -167t-60 -146t-96 -116t-139 -76.5t-189 -27.5z
M760 1532q-34 0 -66.5 8.5t-64.5 18t-64.5 18t-66.5 8.5q-12 0 -26 -9.5t-27.5 -22.5t-25.5 -26.5t-18 -21.5l-104 156q22 20 46.5 40t51.5 36t56 26t61 10q34 0 66.5 -8.5t65 -18t65 -18t67.5 -8.5q11 0 24.5 9.5t27 22.5t25 26t17.5 20l105 -154q-23 -20 -47 -40
t-50.5 -36t-56 -26t-61.5 -10z" />
    <glyph glyph-name="Odieresis" unicode="&#xd6;" horiz-adv-x="1276" 
d="M639 1186q-72 0 -122 -22.5t-83 -60.5t-51.5 -88.5t-27.5 -107t-11 -115t-2 -112.5t2 -112.5t11 -115t27.5 -107t51.5 -88.5t83 -60.5t122 -22.5t122 22.5t83 60.5t51.5 88.5t27.5 107t11 115t2 112.5q0 55 -2 113.5t-11 115t-27.5 107t-51.5 88t-83 60t-122 22.5z
M639 -31q-108 0 -189.5 27.5t-140 76.5t-96.5 116t-60 146t-31 167t-9 178t9 178.5t31 167.5t60 146.5t96.5 116.5t139.5 76.5t190 27.5q108 0 189 -27.5t139 -76.5t96 -116.5t60 -146.5t31 -167.5t9 -178.5t-9 -178t-31 -167t-60 -146t-96 -116t-139 -76.5t-189 -27.5z
M858 1509q-29 0 -53.5 11t-43.5 29.5t-29.5 43.5t-10.5 53t10.5 53.5t29.5 44t43.5 29.5t53.5 11q28 0 53 -11t44 -29.5t29.5 -44t10.5 -53.5t-10.5 -53t-29.5 -43.5t-44 -29.5t-53 -11zM414 1509q-29 0 -54 11t-43.5 29.5t-29.5 43.5t-11 53t11 53.5t29.5 44t43.5 29.5
t54 11q28 0 53 -11t43.5 -29.5t29.5 -44t11 -53.5t-11 -53t-29.5 -43.5t-43.5 -29.5t-53 -11z" />
    <glyph glyph-name="multiply" unicode="&#xd7;" horiz-adv-x="1229" 
d="M1081 330l-116 -117l-351 350l-350 -350l-117 117l351 350l-351 350l117 117l350 -350l351 350l116 -117l-350 -350z" />
    <glyph glyph-name="Oslash" unicode="&#xd8;" horiz-adv-x="1276" 
d="M465 223q37 -29 82 -39t90 -10q72 0 122 22.5t83 60.5t51.5 88.5t27.5 107t11 115t2 112.5q0 71 -5 142t-22 141zM637 1186q-72 0 -122 -22.5t-83 -60t-51.5 -88t-27.5 -107t-11 -115t-2 -113.5q0 -59 3.5 -117t12.5 -117l428 709q-34 19 -71.5 25t-75.5 6zM1049 1196
q37 -56 59.5 -119t34.5 -129t16 -134t4 -134q0 -90 -9 -178t-31.5 -167t-61 -146t-97 -116t-139.5 -76.5t-188 -27.5q-74 0 -147 16t-136 54l-123 -201l-176 107l152 254q-30 54 -48.5 113.5t-28.5 121t-13.5 123.5t-3.5 123q0 90 9 178t31.5 167t60.5 146.5t96 116.5
t138.5 77t188.5 28q66 0 131 -12.5t125 -43.5l149 250l179 -106l-172 -285v0z" />
    <glyph glyph-name="Ugrave" unicode="&#xd9;" horiz-adv-x="1257" 
d="M629 -31q-111 0 -195.5 24.5t-142.5 76t-87.5 132.5t-29.5 195v969h221v-969q0 -115 59.5 -168t174.5 -53q114 0 173.5 53t59.5 168v969h221v-969q0 -114 -29.5 -195.5t-87 -133t-142 -75.5t-195.5 -24zM397 1667l97 172l352 -221l-66 -121z" />
    <glyph glyph-name="Uacute" unicode="&#xda;" horiz-adv-x="1257" 
d="M629 -31q-111 0 -195.5 24.5t-142.5 76t-87.5 132.5t-29.5 195v969h221v-969q0 -115 59.5 -168t174.5 -53q114 0 173.5 53t59.5 168v969h221v-969q0 -114 -29.5 -195.5t-87 -133t-142 -75.5t-195.5 -24zM409 1577l355 221l94 -172l-381 -170z" />
    <glyph glyph-name="Ucircumflex" unicode="&#xdb;" horiz-adv-x="1257" 
d="M629 -31q-111 0 -195.5 24.5t-142.5 76t-87.5 132.5t-29.5 195v969h221v-969q0 -115 59.5 -168t174.5 -53q114 0 173.5 53t59.5 168v969h221v-969q0 -114 -29.5 -195.5t-87 -133t-142 -75.5t-195.5 -24zM971 1638l-84 -141l-258 125l-256 -125l-84 141l340 203z" />
    <glyph glyph-name="Udieresis" unicode="&#xdc;" horiz-adv-x="1257" 
d="M629 -31q-111 0 -195.5 24.5t-142.5 76t-87.5 132.5t-29.5 195v969h221v-969q0 -115 59.5 -168t174.5 -53q114 0 173.5 53t59.5 168v969h221v-969q0 -114 -29.5 -195.5t-87 -133t-142 -75.5t-195.5 -24zM848 1509q-29 0 -53.5 11t-43.5 29.5t-29.5 43.5t-10.5 53
t10.5 53.5t29.5 44t43.5 29.5t53.5 11q28 0 53 -11t44 -29.5t29.5 -44t10.5 -53.5t-10.5 -53t-29.5 -43.5t-44 -29.5t-53 -11zM404 1509q-29 0 -54 11t-43.5 29.5t-29.5 43.5t-11 53t11 53.5t29.5 44t43.5 29.5t54 11q28 0 53 -11t43.5 -29.5t29.5 -44t11 -53.5t-11 -53
t-29.5 -43.5t-43.5 -29.5t-53 -11z" />
    <glyph glyph-name="Yacute" unicode="&#xdd;" horiz-adv-x="1059" 
d="M528 801l281 565h246l-416 -834v-532h-221v532l-414 834h244zM366 1614l355 221l94 -172l-381 -170z" />
    <glyph glyph-name="Thorn" unicode="&#xde;" horiz-adv-x="1174" 
d="M395 909v-415l215 2q58 1 99.5 12t68.5 35.5t40 63.5t13 95q0 112 -53 159.5t-168 47.5h-215zM395 289v-289h-221v1366h221v-252h271q96 0 169.5 -30.5t124 -85t76 -130t25.5 -166.5q0 -90 -26 -165.5t-76.5 -130.5t-124 -86t-168.5 -31h-271z" />
    <glyph glyph-name="germandbls" unicode="&#xdf;" horiz-adv-x="1200" 
d="M627 -14q-41 0 -82.5 7t-81.5 15l24 207q34 -8 70 -15t70 -7q48 0 90 15.5t73.5 44t49.5 68.5t18 89q0 48 -15.5 80t-38.5 56t-49.5 44t-49.5 43.5t-38.5 55t-15.5 79.5q0 33 7.5 57.5t18.5 44.5t24.5 39t24.5 41.5t18.5 51.5t7.5 69q0 56 -35.5 85.5t-89.5 29.5
q-69 0 -114 -30.5t-71.5 -78.5t-36.5 -107t-10 -116v-854h-221v854q0 110 25 208t79.5 171.5t140.5 116.5t208 43q69 0 133 -23t113 -65t78.5 -101.5t29.5 -132.5q0 -63 -19 -111.5t-42.5 -85.5t-42.5 -62.5t-19 -43.5q0 -13 17 -28.5t42.5 -35.5t55 -46.5t55 -62t42.5 -81
t17 -104.5q0 -102 -35.5 -181t-97 -133t-146 -82t-181.5 -28z" />
    <glyph glyph-name="agrave" unicode="&#xe0;" horiz-adv-x="1065" 
d="M532 461q-43 0 -82 -11t-68.5 -33.5t-47 -57t-17.5 -80.5q0 -36 13.5 -60t36 -39t51 -21.5t59.5 -6.5q51 0 105 16.5t92 50.5l2 234q-35 5 -71.5 6.5t-72.5 1.5zM702 37q-26 -18 -56.5 -30.5t-63.5 -20.5t-66.5 -11.5t-64.5 -3.5q-69 0 -133.5 17t-114.5 53t-80.5 91.5
t-30.5 131.5q0 91 35.5 161.5t95 119t136.5 73.5t161 25q38 0 78 -2.5t78 -7.5v37q0 47 -9.5 77.5t-30 48t-53 24.5t-77.5 7q-78 0 -154 -10t-151 -24l-27 180q93 15 184.5 26t184.5 11q71 0 134.5 -19.5t111.5 -58.5t76 -97t28 -135q0 -115 -2 -230t-2 -230
q0 -65 13.5 -122.5t35.5 -117.5h-207zM246 1278l97 172l352 -221l-66 -121z" />
    <glyph glyph-name="aacute" unicode="&#xe1;" horiz-adv-x="1065" 
d="M532 461q-43 0 -82 -11t-68.5 -33.5t-47 -57t-17.5 -80.5q0 -36 13.5 -60t36 -39t51 -21.5t59.5 -6.5q51 0 105 16.5t92 50.5l2 234q-35 5 -71.5 6.5t-72.5 1.5zM702 37q-26 -18 -56.5 -30.5t-63.5 -20.5t-66.5 -11.5t-64.5 -3.5q-69 0 -133.5 17t-114.5 53t-80.5 91.5
t-30.5 131.5q0 91 35.5 161.5t95 119t136.5 73.5t161 25q38 0 78 -2.5t78 -7.5v37q0 47 -9.5 77.5t-30 48t-53 24.5t-77.5 7q-78 0 -154 -10t-151 -24l-27 180q93 15 184.5 26t184.5 11q71 0 134.5 -19.5t111.5 -58.5t76 -97t28 -135q0 -115 -2 -230t-2 -230
q0 -65 13.5 -122.5t35.5 -117.5h-207zM327 1229l355 221l94 -172l-381 -170z" />
    <glyph glyph-name="acircumflex" unicode="&#xe2;" horiz-adv-x="1065" 
d="M532 461q-43 0 -82 -11t-68.5 -33.5t-47 -57t-17.5 -80.5q0 -36 13.5 -60t36 -39t51 -21.5t59.5 -6.5q51 0 105 16.5t92 50.5l2 234q-35 5 -71.5 6.5t-72.5 1.5zM702 37q-26 -18 -56.5 -30.5t-63.5 -20.5t-66.5 -11.5t-64.5 -3.5q-69 0 -133.5 17t-114.5 53t-80.5 91.5
t-30.5 131.5q0 91 35.5 161.5t95 119t136.5 73.5t161 25q38 0 78 -2.5t78 -7.5v37q0 47 -9.5 77.5t-30 48t-53 24.5t-77.5 7q-78 0 -154 -10t-151 -24l-27 180q93 15 184.5 26t184.5 11q71 0 134.5 -19.5t111.5 -58.5t76 -97t28 -135q0 -115 -2 -230t-2 -230
q0 -65 13.5 -122.5t35.5 -117.5h-207zM849 1249l-84 -141l-258 125l-256 -125l-84 141l340 203z" />
    <glyph glyph-name="atilde" unicode="&#xe3;" horiz-adv-x="1065" 
d="M532 461q-43 0 -82 -11t-68.5 -33.5t-47 -57t-17.5 -80.5q0 -36 13.5 -60t36 -39t51 -21.5t59.5 -6.5q51 0 105 16.5t92 50.5l2 234q-35 5 -71.5 6.5t-72.5 1.5zM702 37q-26 -18 -56.5 -30.5t-63.5 -20.5t-66.5 -11.5t-64.5 -3.5q-69 0 -133.5 17t-114.5 53t-80.5 91.5
t-30.5 131.5q0 91 35.5 161.5t95 119t136.5 73.5t161 25q38 0 78 -2.5t78 -7.5v37q0 47 -9.5 77.5t-30 48t-53 24.5t-77.5 7q-78 0 -154 -10t-151 -24l-27 180q93 15 184.5 26t184.5 11q71 0 134.5 -19.5t111.5 -58.5t76 -97t28 -135q0 -115 -2 -230t-2 -230
q0 -65 13.5 -122.5t35.5 -117.5h-207zM632 1143q-34 0 -66.5 8.5t-64.5 18t-64.5 18t-66.5 8.5q-12 0 -26 -9.5t-27.5 -22.5t-25.5 -26.5t-18 -21.5l-104 156q22 20 46.5 40t51.5 36t56 26t61 10q34 0 66.5 -8.5t65 -18t65 -18t67.5 -8.5q11 0 24.5 9.5t27 22.5t25 26
t17.5 20l105 -154q-23 -20 -47 -40t-50.5 -36t-56 -26t-61.5 -10z" />
    <glyph glyph-name="adieresis" unicode="&#xe4;" horiz-adv-x="1065" 
d="M532 461q-43 0 -82 -11t-68.5 -33.5t-47 -57t-17.5 -80.5q0 -36 13.5 -60t36 -39t51 -21.5t59.5 -6.5q51 0 105 16.5t92 50.5l2 234q-35 5 -71.5 6.5t-72.5 1.5zM702 37q-26 -18 -56.5 -30.5t-63.5 -20.5t-66.5 -11.5t-64.5 -3.5q-69 0 -133.5 17t-114.5 53t-80.5 91.5
t-30.5 131.5q0 91 35.5 161.5t95 119t136.5 73.5t161 25q38 0 78 -2.5t78 -7.5v37q0 47 -9.5 77.5t-30 48t-53 24.5t-77.5 7q-78 0 -154 -10t-151 -24l-27 180q93 15 184.5 26t184.5 11q71 0 134.5 -19.5t111.5 -58.5t76 -97t28 -135q0 -115 -2 -230t-2 -230
q0 -65 13.5 -122.5t35.5 -117.5h-207zM728 1120q-29 0 -53.5 11t-43.5 29.5t-29.5 43.5t-10.5 53t10.5 53.5t29.5 44t43.5 29.5t53.5 11q28 0 53 -11t44 -29.5t29.5 -44t10.5 -53.5t-10.5 -53t-29.5 -43.5t-44 -29.5t-53 -11zM284 1120q-29 0 -54 11t-43.5 29.5t-29.5 43.5
t-11 53t11 53.5t29.5 44t43.5 29.5t54 11q28 0 53 -11t43.5 -29.5t29.5 -44t11 -53.5t-11 -53t-29.5 -43.5t-43.5 -29.5t-53 -11z" />
    <glyph glyph-name="aring" unicode="&#xe5;" horiz-adv-x="1065" 
d="M532 461q-43 0 -82 -11t-68.5 -33.5t-47 -57t-17.5 -80.5q0 -36 13.5 -60t36 -39t51 -21.5t59.5 -6.5q51 0 105 16.5t92 50.5l2 234q-35 5 -71.5 6.5t-72.5 1.5zM702 37q-26 -18 -56.5 -30.5t-63.5 -20.5t-66.5 -11.5t-64.5 -3.5q-69 0 -133.5 17t-114.5 53t-80.5 91.5
t-30.5 131.5q0 91 35.5 161.5t95 119t136.5 73.5t161 25q38 0 78 -2.5t78 -7.5v37q0 47 -9.5 77.5t-30 48t-53 24.5t-77.5 7q-78 0 -154 -10t-151 -24l-27 180q93 15 184.5 26t184.5 11q71 0 134.5 -19.5t111.5 -58.5t76 -97t28 -135q0 -115 -2 -230t-2 -230
q0 -65 13.5 -122.5t35.5 -117.5h-207zM538 1382q-16 0 -30.5 -6.5t-25.5 -17t-17.5 -25t-6.5 -30.5t6.5 -30.5t17.5 -25.5t25.5 -17.5t30.5 -6.5q32 0 55 24t23 56t-23 55.5t-55 23.5zM538 1094q-43 0 -81 16.5t-66.5 45t-45 66.5t-16.5 81t16.5 80.5t45 66t66.5 45t81 16.5
q42 0 79.5 -16.5t66 -45t45 -66t16.5 -80.5t-16.5 -81t-45 -66.5t-66 -45t-79.5 -16.5z" />
    <glyph glyph-name="ae" unicode="&#xe6;" horiz-adv-x="1628" 
d="M668 451q-38 5 -73.5 6.5t-72.5 1.5q-43 0 -82 -11t-68.5 -33.5t-47 -57t-17.5 -81.5q0 -35 13.5 -59t36 -39t51 -21.5t59.5 -6.5q54 0 105 17t92 52l4 232v0zM1102 827q-42 0 -78 -15t-63 -43t-42.5 -68t-15.5 -89h395q0 49 -15 89t-41.5 68t-62.5 43t-77 15zM891 430
q0 -21 4 -49.5t13.5 -59.5t25.5 -61.5t39.5 -55t55 -39.5t73.5 -15q75 0 147.5 9.5t145.5 30.5l24 -182q-78 -21 -157 -30t-160 -9q-42 0 -85.5 7.5t-84.5 23.5t-77.5 39t-63.5 55q-34 -32 -76 -55.5t-87.5 -39t-93.5 -23t-94 -7.5q-68 0 -132.5 17t-114.5 52.5t-80.5 91
t-30.5 132.5q0 91 35.5 161.5t95 119t136.5 73.5t161 25q40 0 78.5 -2.5t79.5 -5.5v35q0 47 -9.5 77.5t-30.5 48.5t-53 25.5t-77 7.5q-79 0 -155.5 -10t-152.5 -24l-26 180q93 15 185 26t186 11q74 0 146 -23.5t126 -77.5q28 26 63 45t74 31.5t79.5 18.5t78.5 6
q125 0 208.5 -44.5t133.5 -122.5t71 -184t21 -229h-645v0z" />
    <glyph glyph-name="ccedilla" unicode="&#xe7;" horiz-adv-x="844" 
d="M649 -31q10 -21 15.5 -43t5.5 -45q0 -45 -14 -90t-37 -87t-52.5 -80.5t-60.5 -69.5l-123 98q14 18 32 42.5t34 52t27 55.5t11 51q0 16 -16.5 25.5t-38 15t-43 7t-31.5 1.5l13 86q-81 27 -135 79t-86 119.5t-45 145.5t-13 155q0 108 23.5 203t76 166t135.5 112.5t203 41.5
q66 0 132 -11t131 -28l-27 -185q-57 17 -116.5 29t-119.5 12q-70 0 -112 -33t-64.5 -83t-29.5 -110t-7 -114t7.5 -114t30 -110.5t64.5 -84t111 -33.5t136 10.5t133 30.5l24 -182q-43 -14 -86 -23t-88 -12z" />
    <glyph glyph-name="egrave" unicode="&#xe8;" horiz-adv-x="1055" 
d="M526 827q-46 0 -83 -17t-62.5 -46.5t-39 -68.5t-13.5 -83h397q0 44 -13.5 83t-39 68.5t-62.5 46.5t-84 17zM317 430q5 -47 17 -96.5t36 -90.5t61.5 -67t94.5 -26q76 0 149 10t144 30l27 -182q-79 -21 -158.5 -30t-161.5 -9q-117 0 -199.5 44t-134.5 118t-76 170t-24 201
q0 106 24.5 198.5t77 161.5t134.5 108.5t198 39.5q132 0 217 -48.5t134 -129.5t67.5 -185.5t18.5 -216.5h-646v0zM252 1278l97 172l352 -221l-66 -121z" />
    <glyph glyph-name="eacute" unicode="&#xe9;" horiz-adv-x="1055" 
d="M526 827q-46 0 -83 -17t-62.5 -46.5t-39 -68.5t-13.5 -83h397q0 44 -13.5 83t-39 68.5t-62.5 46.5t-84 17zM317 430q5 -47 17 -96.5t36 -90.5t61.5 -67t94.5 -26q76 0 149 10t144 30l27 -182q-79 -21 -158.5 -30t-161.5 -9q-117 0 -199.5 44t-134.5 118t-76 170t-24 201
q0 106 24.5 198.5t77 161.5t134.5 108.5t198 39.5q132 0 217 -48.5t134 -129.5t67.5 -185.5t18.5 -216.5h-646v0zM350 1229l355 221l94 -172l-381 -170z" />
    <glyph glyph-name="ecircumflex" unicode="&#xea;" horiz-adv-x="1055" 
d="M526 827q-46 0 -83 -17t-62.5 -46.5t-39 -68.5t-13.5 -83h397q0 44 -13.5 83t-39 68.5t-62.5 46.5t-84 17zM317 430q5 -47 17 -96.5t36 -90.5t61.5 -67t94.5 -26q76 0 149 10t144 30l27 -182q-79 -21 -158.5 -30t-161.5 -9q-117 0 -199.5 44t-134.5 118t-76 170t-24 201
q0 106 24.5 198.5t77 161.5t134.5 108.5t198 39.5q132 0 217 -48.5t134 -129.5t67.5 -185.5t18.5 -216.5h-646v0zM872 1249l-84 -141l-258 125l-256 -125l-84 141l340 203z" />
    <glyph glyph-name="edieresis" unicode="&#xeb;" horiz-adv-x="1055" 
d="M526 827q-46 0 -83 -17t-62.5 -46.5t-39 -68.5t-13.5 -83h397q0 44 -13.5 83t-39 68.5t-62.5 46.5t-84 17zM317 430q5 -47 17 -96.5t36 -90.5t61.5 -67t94.5 -26q76 0 149 10t144 30l27 -182q-79 -21 -158.5 -30t-161.5 -9q-117 0 -199.5 44t-134.5 118t-76 170t-24 201
q0 106 24.5 198.5t77 161.5t134.5 108.5t198 39.5q132 0 217 -48.5t134 -129.5t67.5 -185.5t18.5 -216.5h-646v0zM753 1120q-29 0 -53.5 11t-43.5 29.5t-29.5 43.5t-10.5 53t10.5 53.5t29.5 44t43.5 29.5t53.5 11q28 0 53 -11t44 -29.5t29.5 -44t10.5 -53.5t-10.5 -53
t-29.5 -43.5t-44 -29.5t-53 -11zM309 1120q-29 0 -54 11t-43.5 29.5t-29.5 43.5t-11 53t11 53.5t29.5 44t43.5 29.5t54 11q28 0 53 -11t43.5 -29.5t29.5 -44t11 -53.5t-11 -53t-29.5 -43.5t-43.5 -29.5t-53 -11z" />
    <glyph glyph-name="igrave" unicode="&#xec;" horiz-adv-x="518" 
d="M0 1278l96 172l353 -221l-66 -121zM150 969l217 45v-1014h-217v969z" />
    <glyph glyph-name="iacute" unicode="&#xed;" horiz-adv-x="518" 
d="M70 1229l354 221l94 -172l-381 -170zM150 969l217 45v-1014h-217v969z" />
    <glyph glyph-name="icircumflex" unicode="&#xee;" horiz-adv-x="518" 
d="M600 1245l-78 -155l-264 104l-262 -104l-78 155l340 172zM150 969l217 45v-1014h-217v969z" />
    <glyph glyph-name="idieresis" unicode="&#xef;" horiz-adv-x="518" 
d="M481 1120q-28 0 -53 11t-43.5 29.5t-29.5 43.5t-11 53t11 53.5t29.5 44t43.5 29.5t53 11t53 -11t44 -29.5t29.5 -44t10.5 -53.5t-10.5 -53t-29.5 -43.5t-44 -29.5t-53 -11zM37 1120q-29 0 -53.5 11t-43.5 29.5t-29.5 43.5t-10.5 53t10.5 53.5t29.5 44t43.5 29.5t53.5 11
q28 0 53 -11t44 -29.5t29.5 -44t10.5 -53.5t-10.5 -53t-29.5 -43.5t-44 -29.5t-53 -11zM150 969l217 45v-1014h-217v969z" />
    <glyph glyph-name="eth" unicode="&#xf0;" horiz-adv-x="1051" 
d="M555 674q-118 0 -173.5 -61t-55.5 -179q0 -62 10 -113t33.5 -87t62.5 -56t96 -20q55 0 93 23.5t61.5 63t34 93t10.5 113.5q0 51 -4 104.5t-16 106.5q-36 8 -78.5 10t-73.5 2zM528 -33q-104 0 -185.5 36.5t-137 99.5t-84.5 148t-29 183q0 97 32 176.5t89.5 135t137.5 86
t177 30.5q23 0 48.5 -1t56.5 -3q-26 50 -54 91t-57 83l-231 -84l-64 178l172 62q-17 18 -34 37.5t-41 48.5l143 121q44 -47 72.5 -77.5t54.5 -57.5l178 65l66 -178l-119 -43q50 -69 93.5 -143.5t76 -154t51 -163t18.5 -170.5q0 -98 -23.5 -189t-75 -161.5t-133.5 -113
t-198 -42.5z" />
    <glyph glyph-name="ntilde" unicode="&#xf1;" horiz-adv-x="1092" 
d="M727 602q0 42 -3.5 83t-18 73t-44.5 51.5t-83 19.5q-51 0 -106 -16t-101 -41v-772h-217v838q0 34 -8 66.5t-19 64.5l190 45q11 -14 21 -28.5t16 -31.5q62 25 132.5 40.5t136.5 15.5q97 0 159 -32.5t98 -88t50 -129.5t14 -158v-602h-217v602zM672 1143q-34 0 -66.5 8.5
t-64.5 18t-64.5 18t-66.5 8.5q-12 0 -26 -9.5t-27.5 -22.5t-25.5 -26.5t-18 -21.5l-104 156q22 20 46.5 40t51.5 36t56 26t61 10q34 0 66.5 -8.5t65 -18t65 -18t67.5 -8.5q11 0 24.5 9.5t27 22.5t25 26t17.5 20l105 -154q-23 -20 -47 -40t-50.5 -36t-56 -26t-61.5 -10z" />
    <glyph glyph-name="ograve" unicode="&#xf2;" horiz-adv-x="1055" 
d="M528 827q-73 0 -115 -31.5t-63.5 -81t-27 -109.5t-5.5 -116q0 -58 4.5 -118.5t25 -109.5t63 -80t118.5 -31q75 0 117.5 31t62.5 80t24.5 109.5t4.5 118.5q0 56 -5.5 116t-26.5 109.5t-63 81t-114 31.5zM528 -31q-122 0 -205.5 40t-134.5 110.5t-73.5 165t-22.5 204.5
q0 107 23.5 201.5t75.5 165.5t135 112.5t202 41.5t202 -41.5t134.5 -112.5t75 -165.5t23.5 -201.5q0 -110 -22.5 -204.5t-73.5 -165t-134.5 -110.5t-204.5 -40zM271 1278l97 172l352 -221l-66 -121z" />
    <glyph glyph-name="oacute" unicode="&#xf3;" horiz-adv-x="1055" 
d="M528 827q-73 0 -115 -31.5t-63.5 -81t-27 -109.5t-5.5 -116q0 -58 4.5 -118.5t25 -109.5t63 -80t118.5 -31q75 0 117.5 31t62.5 80t24.5 109.5t4.5 118.5q0 56 -5.5 116t-26.5 109.5t-63 81t-114 31.5zM528 -31q-122 0 -205.5 40t-134.5 110.5t-73.5 165t-22.5 204.5
q0 107 23.5 201.5t75.5 165.5t135 112.5t202 41.5t202 -41.5t134.5 -112.5t75 -165.5t23.5 -201.5q0 -110 -22.5 -204.5t-73.5 -165t-134.5 -110.5t-204.5 -40zM337 1229l355 221l94 -172l-381 -170z" />
    <glyph glyph-name="ocircumflex" unicode="&#xf4;" horiz-adv-x="1055" 
d="M528 827q-73 0 -115 -31.5t-63.5 -81t-27 -109.5t-5.5 -116q0 -58 4.5 -118.5t25 -109.5t63 -80t118.5 -31q75 0 117.5 31t62.5 80t24.5 109.5t4.5 118.5q0 56 -5.5 116t-26.5 109.5t-63 81t-114 31.5zM528 -31q-122 0 -205.5 40t-134.5 110.5t-73.5 165t-22.5 204.5
q0 107 23.5 201.5t75.5 165.5t135 112.5t202 41.5t202 -41.5t134.5 -112.5t75 -165.5t23.5 -201.5q0 -110 -22.5 -204.5t-73.5 -165t-134.5 -110.5t-204.5 -40zM870 1249l-84 -141l-258 125l-256 -125l-84 141l340 203z" />
    <glyph glyph-name="otilde" unicode="&#xf5;" horiz-adv-x="1055" 
d="M528 827q-73 0 -115 -31.5t-63.5 -81t-27 -109.5t-5.5 -116q0 -58 4.5 -118.5t25 -109.5t63 -80t118.5 -31q75 0 117.5 31t62.5 80t24.5 109.5t4.5 118.5q0 56 -5.5 116t-26.5 109.5t-63 81t-114 31.5zM528 -31q-122 0 -205.5 40t-134.5 110.5t-73.5 165t-22.5 204.5
q0 107 23.5 201.5t75.5 165.5t135 112.5t202 41.5t202 -41.5t134.5 -112.5t75 -165.5t23.5 -201.5q0 -110 -22.5 -204.5t-73.5 -165t-134.5 -110.5t-204.5 -40zM653 1143q-34 0 -66.5 8.5t-64.5 18t-64.5 18t-66.5 8.5q-12 0 -26 -9.5t-27.5 -22.5t-25.5 -26.5t-18 -21.5
l-104 156q22 20 46.5 40t51.5 36t56 26t61 10q34 0 66.5 -8.5t65 -18t65 -18t67.5 -8.5q11 0 24.5 9.5t27 22.5t25 26t17.5 20l105 -154q-23 -20 -47 -40t-50.5 -36t-56 -26t-61.5 -10z" />
    <glyph glyph-name="odieresis" unicode="&#xf6;" horiz-adv-x="1055" 
d="M528 827q-73 0 -115 -31.5t-63.5 -81t-27 -109.5t-5.5 -116q0 -58 4.5 -118.5t25 -109.5t63 -80t118.5 -31q75 0 117.5 31t62.5 80t24.5 109.5t4.5 118.5q0 56 -5.5 116t-26.5 109.5t-63 81t-114 31.5zM528 -31q-122 0 -205.5 40t-134.5 110.5t-73.5 165t-22.5 204.5
q0 107 23.5 201.5t75.5 165.5t135 112.5t202 41.5t202 -41.5t134.5 -112.5t75 -165.5t23.5 -201.5q0 -110 -22.5 -204.5t-73.5 -165t-134.5 -110.5t-204.5 -40zM747 1120q-29 0 -53.5 11t-43.5 29.5t-29.5 43.5t-10.5 53t10.5 53.5t29.5 44t43.5 29.5t53.5 11q28 0 53 -11
t44 -29.5t29.5 -44t10.5 -53.5t-10.5 -53t-29.5 -43.5t-44 -29.5t-53 -11zM303 1120q-29 0 -54 11t-43.5 29.5t-29.5 43.5t-11 53t11 53.5t29.5 44t43.5 29.5t54 11q28 0 53 -11t43.5 -29.5t29.5 -44t11 -53.5t-11 -53t-29.5 -43.5t-43.5 -29.5t-53 -11z" />
    <glyph glyph-name="divide" unicode="&#xf7;" horiz-adv-x="1229" 
d="M614 881q-25 0 -47.5 9.5t-39 26.5t-26 39t-9.5 48q0 25 9.5 47.5t26 39t39 26t47.5 9.5t47 -9.5t38.5 -26t26 -39t9.5 -47.5q0 -26 -9.5 -48t-26 -39t-38.5 -26.5t-47 -9.5zM614 229q-25 0 -47.5 10t-39 26.5t-26 39t-9.5 47.5t9.5 47.5t26 39.5t39 26.5t47.5 9.5
t47 -9.5t38.5 -26.5t26 -39.5t9.5 -47.5t-9.5 -47.5t-26 -39t-38.5 -26.5t-47 -10zM143 764h942v-172h-942v172z" />
    <glyph glyph-name="oslash" unicode="&#xf8;" horiz-adv-x="1055" 
d="M438 164q22 -8 44.5 -11t45.5 -3q75 0 117.5 31t62.5 80t24.5 109.5t4.5 118.5q0 39 -2 77.5t-8 76.5zM528 827q-73 0 -115 -31.5t-63.5 -81t-27 -109.5t-5.5 -116q0 -40 2 -78.5t9 -78.5l288 481q-21 8 -43.5 11t-44.5 3zM528 -31q-48 0 -95.5 7t-92.5 24l-90 -150
l-156 95l101 166q-31 40 -51 85.5t-31.5 94t-16 99t-4.5 99.5q0 107 23.5 201.5t75.5 165.5t135 112.5t202 41.5q48 0 95 -8.5t92 -26.5l90 151l156 -94l-103 -168q31 -40 51 -85.5t32 -93.5t17 -98t5 -98q0 -110 -22.5 -204.5t-73.5 -165t-134.5 -110.5t-204.5 -40z" />
    <glyph glyph-name="ugrave" unicode="&#xf9;" horiz-adv-x="1094" 
d="M737 47q-60 -32 -130.5 -54t-139.5 -22q-96 0 -158 32.5t-98 88t-50 129t-14 156.5v592l218 45v-637q0 -42 3.5 -82.5t18 -72t44 -51t81.5 -19.5q51 0 105.5 16t99.5 41v760l217 45v-828q0 -48 11 -94.5t30 -91.5h-205zM295 1278l97 172l352 -221l-66 -121z" />
    <glyph glyph-name="uacute" unicode="&#xfa;" horiz-adv-x="1094" 
d="M737 47q-60 -32 -130.5 -54t-139.5 -22q-96 0 -158 32.5t-98 88t-50 129t-14 156.5v592l218 45v-637q0 -42 3.5 -82.5t18 -72t44 -51t81.5 -19.5q51 0 105.5 16t99.5 41v760l217 45v-828q0 -48 11 -94.5t30 -91.5h-205zM337 1229l355 221l94 -172l-381 -170z" />
    <glyph glyph-name="ucircumflex" unicode="&#xfb;" horiz-adv-x="1094" 
d="M737 47q-60 -32 -130.5 -54t-139.5 -22q-96 0 -158 32.5t-98 88t-50 129t-14 156.5v592l218 45v-637q0 -42 3.5 -82.5t18 -72t44 -51t81.5 -19.5q51 0 105.5 16t99.5 41v760l217 45v-828q0 -48 11 -94.5t30 -91.5h-205zM884 1249l-84 -141l-258 125l-256 -125l-84 141
l340 203z" />
    <glyph glyph-name="udieresis" unicode="&#xfc;" horiz-adv-x="1094" 
d="M737 47q-60 -32 -130.5 -54t-139.5 -22q-96 0 -158 32.5t-98 88t-50 129t-14 156.5v592l218 45v-637q0 -42 3.5 -82.5t18 -72t44 -51t81.5 -19.5q51 0 105.5 16t99.5 41v760l217 45v-828q0 -48 11 -94.5t30 -91.5h-205zM765 1120q-29 0 -53.5 11t-43.5 29.5t-29.5 43.5
t-10.5 53t10.5 53.5t29.5 44t43.5 29.5t53.5 11q28 0 53 -11t44 -29.5t29.5 -44t10.5 -53.5t-10.5 -53t-29.5 -43.5t-44 -29.5t-53 -11zM321 1120q-29 0 -54 11t-43.5 29.5t-29.5 43.5t-11 53t11 53.5t29.5 44t43.5 29.5t54 11q28 0 53 -11t43.5 -29.5t29.5 -44t11 -53.5
t-11 -53t-29.5 -43.5t-43.5 -29.5t-53 -11z" />
    <glyph glyph-name="yacute" unicode="&#xfd;" horiz-adv-x="920" 
d="M176 -332q39 30 66.5 68.5t48 82t35.5 90t30 91.5q-9 11 -17 24t-13 27l-316 918l221 45l232 -709l219 674h238l-347 -987q-24 -70 -46 -132t-50.5 -117.5t-68.5 -106.5t-101 -99zM314 1229l355 221l94 -172l-381 -170z" />
    <glyph glyph-name="thorn" unicode="&#xfe;" horiz-adv-x="1057" 
d="M573 829q-24 0 -51.5 -5.5t-55.5 -14.5t-54 -20t-47 -23v-586q40 -11 79.5 -15.5t81.5 -4.5q54 0 91 17.5t61 47t37 69t18.5 82.5t6.5 87t1 84q0 43 -5 92.5t-22 91.5t-50.5 70t-90.5 28zM365 954q57 25 117 40.5t122 15.5q107 0 176.5 -38.5t110.5 -102.5t57.5 -148
t16.5 -174q0 -68 -8.5 -136.5t-28 -131.5t-51.5 -117.5t-78.5 -95t-108.5 -63.5t-143 -23q-47 0 -92 5t-90 13v-356h-211v1196v569l211 45v-498v0z" />
    <glyph glyph-name="ydieresis" unicode="&#xff;" horiz-adv-x="920" 
d="M176 -332q39 30 66.5 68.5t48 82t35.5 90t30 91.5q-9 11 -17 24t-13 27l-316 918l221 45l232 -709l219 674h238l-347 -987q-24 -70 -46 -132t-50.5 -117.5t-68.5 -106.5t-101 -99zM685 1120q-29 0 -53.5 11t-43.5 29.5t-29.5 43.5t-10.5 53t10.5 53.5t29.5 44t43.5 29.5
t53.5 11q28 0 53 -11t44 -29.5t29.5 -44t10.5 -53.5t-10.5 -53t-29.5 -43.5t-44 -29.5t-53 -11zM241 1120q-29 0 -54 11t-43.5 29.5t-29.5 43.5t-11 53t11 53.5t29.5 44t43.5 29.5t54 11q28 0 53 -11t43.5 -29.5t29.5 -44t11 -53.5t-11 -53t-29.5 -43.5t-43.5 -29.5t-53 -11
z" />
    <glyph glyph-name="dotlessi" unicode="&#x131;" horiz-adv-x="518" 
d="M150 969l217 45v-1014h-217v969z" />
    <glyph glyph-name="Lslash" unicode="&#x141;" horiz-adv-x="997" 
d="M172 559l-102 -59v213l102 61v592h223v-465l287 168v-215l-287 -166v-481h592v-207h-815v559z" />
    <glyph glyph-name="lslash" unicode="&#x142;" horiz-adv-x="516" 
d="M365 256q0 -29 3.5 -49.5t13 -35.5t26.5 -27.5t43 -26.5l-54 -158q-67 23 -114.5 46t-77.5 56.5t-44 82t-14 122.5v287l-102 -59v211l102 57v645l218 45v-563l102 59v-211l-102 -59v-422z" />
    <glyph glyph-name="OE" unicode="&#x152;" horiz-adv-x="1653" 
d="M639 1159q-73 0 -123 -19.5t-83 -53.5t-51.5 -80t-27 -99t-10.5 -110t-2 -113q0 -57 1.5 -114.5t10 -110.5t27 -99t51.5 -80t83.5 -53.5t123.5 -19.5q38 0 77.5 0.5t80.5 3.5v942q-81 6 -158 6zM639 0q-108 0 -189 24.5t-139.5 68.5t-96.5 106t-60.5 137t-31.5 161
t-9 179q0 91 9 178t31.5 163.5t60.5 140.5t96.5 110.5t139.5 72t189 25.5h973l-49 -207h-545v-328h434v-204h-434v-420h581v-207h-960v0z" />
    <glyph glyph-name="oe" unicode="&#x153;" horiz-adv-x="1704" 
d="M528 827q-73 0 -115 -31.5t-63.5 -81t-27 -109.5t-5.5 -116q0 -58 4.5 -118.5t25 -109.5t63 -80t118.5 -31q75 0 117.5 31t62.5 80t24.5 109.5t4.5 118.5q0 56 -5 116t-26 109.5t-63 81t-115 31.5zM1176 827q-42 0 -78 -14.5t-63 -42t-42.5 -67.5t-15.5 -91h397
q0 51 -15.5 91t-42.5 67.5t-63 42t-77 14.5zM967 430q0 -19 4 -47.5t13.5 -59.5t25 -62t38.5 -55.5t54.5 -40t73.5 -15.5q75 0 147.5 9.5t144.5 30.5l27 -182q-78 -23 -158 -32t-161 -9q-91 0 -173.5 32.5t-142.5 104.5q-28 -35 -67 -61t-83.5 -43t-91.5 -25t-90 -8
q-122 0 -205.5 40.5t-134.5 111t-73.5 165.5t-22.5 205q0 107 23.5 201.5t75 165.5t134.5 112.5t203 41.5q43 0 88.5 -8t88.5 -24.5t81 -41.5t66 -59q62 72 146.5 102.5t177.5 30.5q125 0 208.5 -44t134 -121.5t72 -184t21.5 -230.5h-645v0z" />
    <glyph glyph-name="Scaron" unicode="&#x160;" horiz-adv-x="1071" 
d="M473 -31q-91 0 -181 10.5t-179 24.5l24 209q76 -15 152 -27t153 -12q52 0 103 12t92 38.5t66.5 68.5t25.5 102q0 56 -26.5 95t-69.5 68t-98 52.5t-112 48t-112 55t-98 74t-69.5 104t-26.5 146.5q0 99 35 167t95 110t138.5 60t165.5 18q91 0 178.5 -11t177.5 -26l-24 -205
q-76 12 -152 23.5t-153 11.5q-37 0 -78 -5.5t-75 -21t-56.5 -44.5t-22.5 -77q0 -56 26.5 -93.5t69.5 -65t98 -49.5t112 -46t112 -54t98 -75t69.5 -108t26.5 -152q0 -105 -39.5 -184.5t-106.5 -133.5t-154.5 -81t-184.5 -27zM192 1696l84 141l256 -125l258 125l84 -141
l-342 -203z" />
    <glyph glyph-name="scaron" unicode="&#x161;" horiz-adv-x="887" 
d="M401 -31q-80 0 -158.5 11.5t-156.5 23.5l27 182l124 -24t125 -12q31 0 67.5 6.5t67.5 22.5t51.5 42.5t20.5 65.5q0 36 -20 60.5t-53.5 43t-75.5 34.5t-86.5 34t-86.5 41t-75.5 57t-53.5 81t-20 112q0 79 32 129.5t83.5 79.5t116.5 40t131 11q77 0 153.5 -11t151.5 -26
l-25 -185q-66 19 -134 29t-136 10q-21 0 -47 -1t-48 -8t-37 -22.5t-15 -45.5q0 -35 20 -59t53.5 -42t75.5 -33.5t86.5 -33t86.5 -41t75.5 -57.5t53.5 -82t20 -115q0 -80 -34.5 -139.5t-90.5 -99.5t-126.5 -59.5t-142.5 -19.5zM93 1311l84 141l256 -125l258 125l84 -141
l-342 -203z" />
    <glyph glyph-name="Ydieresis" unicode="&#x178;" horiz-adv-x="1059" 
d="M528 801l281 565h246l-416 -834v-532h-221v532l-414 834h244zM753 1509q-29 0 -53.5 11t-43.5 29.5t-29.5 43.5t-10.5 53t10.5 53.5t29.5 44t43.5 29.5t53.5 11q28 0 53 -11t44 -29.5t29.5 -44t10.5 -53.5t-10.5 -53t-29.5 -43.5t-44 -29.5t-53 -11zM309 1509
q-29 0 -54 11t-43.5 29.5t-29.5 43.5t-11 53t11 53.5t29.5 44t43.5 29.5t54 11q28 0 53 -11t43.5 -29.5t29.5 -44t11 -53.5t-11 -53t-29.5 -43.5t-43.5 -29.5t-53 -11z" />
    <glyph glyph-name="Zcaron" unicode="&#x17d;" horiz-adv-x="1028" 
d="M977 1221l-627 -1014h611v-207h-887l-23 145l627 1014h-610v207h886zM188 1696l84 141l256 -125l258 125l84 -141l-342 -203z" />
    <glyph glyph-name="zcaron" unicode="&#x17e;" horiz-adv-x="891" 
d="M831 180v-180h-765l-25 121l496 678h-480v180h768l25 -121l-496 -678h477zM110 1311l84 141l256 -125l258 125l84 -141l-342 -203z" />
    <glyph glyph-name="florin" unicode="&#x192;" horiz-adv-x="942" 
d="M866 1217q-47 9 -73 11.5t-45 2.5q-62 0 -97 -22.5t-54 -58.5t-26 -81t-12 -90h213l-80 -184h-160l-100 -721q-12 -85 -37 -154.5t-67 -130t-102.5 -115t-141.5 -108.5l-90 145q53 44 92 93.5t66 102.5t43 109t24 113l92 666h-102l27 184h102q13 94 39 175t74.5 140.5
t123 93t185.5 33.5q29 0 63.5 -5.5t89.5 -24.5l-47 -174v0z" />
    <glyph glyph-name="circumflex" unicode="&#x2c6;" horiz-adv-x="1085" 
d="M885 1249l-84 -141l-258 125l-256 -125l-84 141l340 203z" />
    <glyph glyph-name="caron" unicode="&#x2c7;" horiz-adv-x="1085" 
d="M203 1311l84 141l256 -125l258 125l84 -141l-342 -203z" />
    <glyph glyph-name="breve" unicode="&#x2d8;" horiz-adv-x="1087" 
d="M545 1094q-57 0 -109.5 16.5t-97.5 46.5t-80.5 72.5t-58.5 93.5l131 107q20 -21 45 -43t52.5 -39.5t57.5 -29t60 -11.5t59.5 11.5t57 29t52 39.5t44.5 43l133 -107q-24 -51 -60 -93.5t-80.5 -72.5t-96.5 -46.5t-109 -16.5z" />
    <glyph glyph-name="dotaccent" unicode="&#x2d9;" horiz-adv-x="1085" 
d="M543 1118q-29 0 -53.5 11t-43.5 29.5t-29.5 43.5t-10.5 53t10.5 53.5t29.5 44t43.5 29.5t53.5 11q28 0 53 -11t43.5 -29.5t29.5 -44t11 -53.5t-11 -53t-29.5 -43.5t-43.5 -29.5t-53 -11z" />
    <glyph glyph-name="ring" unicode="&#x2da;" horiz-adv-x="1085" 
d="M545 1382q-16 0 -30.5 -6.5t-25.5 -17t-17.5 -25t-6.5 -30.5t6.5 -30.5t17.5 -25.5t25.5 -17.5t30.5 -6.5q32 0 55 24t23 56t-23 55.5t-55 23.5zM545 1094q-43 0 -81 16.5t-66.5 45t-45 66.5t-16.5 81t16.5 80.5t45 66t66.5 45t81 16.5q42 0 79.5 -16.5t66 -45t45 -66
t16.5 -80.5t-16.5 -81t-45 -66.5t-66 -45t-79.5 -16.5z" />
    <glyph glyph-name="ogonek" unicode="&#x2db;" horiz-adv-x="1085" 
d="M604 -434q-54 0 -91 20.5t-60 54t-33 77.5t-10 92q0 54 11 105.5t30 102.5l141 -36q-9 -36 -16 -73t-7 -75q0 -15 1 -30.5t6 -29t16 -22t31 -8.5q23 0 45.5 8.5t44.5 16.5l45 -162q-35 -17 -74.5 -29t-79.5 -12z" />
    <glyph glyph-name="tilde" unicode="&#x2dc;" horiz-adv-x="1085" 
d="M668 1143q-34 0 -66.5 8.5t-64.5 18t-64.5 18t-66.5 8.5q-12 0 -26 -9.5t-27.5 -22.5t-25.5 -26.5t-18 -21.5l-104 156q22 20 46.5 40t51.5 36t56 26t61 10q34 0 66.5 -8.5t65 -18t65 -18t67.5 -8.5q11 0 24.5 9.5t27 22.5t25 26t17.5 20l105 -154q-23 -20 -47 -40
t-50.5 -36t-56 -26t-61.5 -10z" />
    <glyph glyph-name="hungarumlaut" unicode="&#x2dd;" horiz-adv-x="1087" 
d="M457 1188l233 348l158 -119l-281 -311zM72 1188l233 348l156 -119l-279 -311z" />
    <glyph glyph-name="Delta" unicode="&#x394;" 
d="M770 1352h-676v-1338h676v1338zM80 0v1366h704v-1366h-704z" />
    <glyph glyph-name="Delta" unicode="&#x2206;" 
d="M770 1352h-676v-1338h676v1338zM80 0v1366h704v-1366h-704z" />
    <glyph glyph-name="Omega" unicode="&#x3a9;" 
d="M770 1352h-676v-1338h676v1338zM80 0v1366h704v-1366h-704z" />
    <glyph glyph-name="Omega" unicode="&#x2126;" 
d="M770 1352h-676v-1338h676v1338zM80 0v1366h704v-1366h-704z" />
    <glyph glyph-name="pi" unicode="&#x3c0;" 
d="M770 1352h-676v-1338h676v1338zM80 0v1366h704v-1366h-704z" />
    <glyph glyph-name="endash" unicode="&#x2013;" horiz-adv-x="1024" 
d="M1024 643v-182h-1024v182h1024z" />
    <glyph glyph-name="emdash" unicode="&#x2014;" horiz-adv-x="2048" 
d="M2048 643v-182h-2048v182h2048z" />
    <glyph glyph-name="quoteleft" unicode="&#x2018;" horiz-adv-x="543" 
d="M352 1325q-21 -38 -38 -79t-25 -85q42 -14 68 -50t26 -81q0 -29 -10.5 -53.5t-29.5 -43.5t-44 -29.5t-53 -10.5q-35 0 -61.5 13t-44 35t-26 51.5t-8.5 62.5q0 48 12.5 93t34 88t49.5 82t60 75z" />
    <glyph glyph-name="quoteright" unicode="&#x2019;" horiz-adv-x="543" 
d="M164 958q22 39 39.5 81t23.5 85q-42 14 -68 50t-26 81q0 28 11 53.5t29.5 44t43.5 29.5t53 11q36 0 62 -13t43.5 -35.5t26 -52t8.5 -61.5q0 -48 -12.5 -94t-33.5 -89t-49 -82t-59 -73z" />
    <glyph glyph-name="quotesinglbase" unicode="&#x201a;" horiz-adv-x="563" 
d="M170 -190q22 37 40 78.5t26 84.5q-44 14 -70.5 50t-26.5 81q0 28 11 53.5t29.5 45t43.5 30.5t53 11q36 0 62.5 -13.5t44 -36t26.5 -52t9 -62.5q0 -48 -13 -93.5t-34.5 -88t-49.5 -82t-59 -74.5z" />
    <glyph glyph-name="quotedblleft" unicode="&#x201c;" horiz-adv-x="932" 
d="M379 1325q-22 -38 -39 -79t-25 -85q42 -14 68.5 -50t26.5 -81q0 -29 -11 -53.5t-29.5 -43.5t-44 -29.5t-53.5 -10.5q-35 0 -61.5 13t-43.5 35t-25.5 51.5t-8.5 62.5q0 48 12.5 93t34 88t49.5 82t60 75zM766 1325q-20 -38 -38 -79t-26 -85q42 -14 69.5 -50t27.5 -81
q0 -29 -11 -53.5t-30.5 -43.5t-45 -29.5t-53.5 -10.5q-35 0 -61.5 13t-43.5 35t-25.5 51.5t-8.5 62.5q0 48 13 93t34.5 88t49.5 82t59 75z" />
    <glyph glyph-name="quotedblright" unicode="&#x201d;" horiz-adv-x="932" 
d="M553 958q20 39 37.5 81t25.5 85q-43 14 -69.5 50t-26.5 81q0 28 11 53.5t30 44t44.5 29.5t53.5 11q36 0 62 -13t43.5 -35.5t26 -52t8.5 -61.5q0 -48 -13 -94t-34.5 -89t-49.5 -82t-59 -73zM164 958q22 39 39.5 81t23.5 85q-42 14 -68 50t-26 81q0 28 11 53.5t29.5 44
t43.5 29.5t53 11q36 0 62 -13t43.5 -35.5t26 -52t8.5 -61.5q0 -48 -12.5 -94t-33.5 -89t-49 -82t-59 -73z" />
    <glyph glyph-name="quotedblbase" unicode="&#x201e;" horiz-adv-x="950" 
d="M559 -190q20 37 38 78.5t26 84.5q-42 14 -69.5 50.5t-27.5 80.5q0 28 11 53.5t30.5 45t44.5 30.5t54 11q35 0 61 -13.5t43.5 -36t26 -52t8.5 -62.5q0 -48 -13 -93.5t-34.5 -88t-49.5 -82t-59 -74.5zM170 -190q22 37 40 78.5t26 84.5q-44 14 -70.5 50t-26.5 81
q0 28 11 53.5t29.5 45t43.5 30.5t53 11q36 0 62.5 -13.5t44 -36t26.5 -52t9 -62.5q0 -48 -13 -93.5t-34.5 -88t-49.5 -82t-59 -74.5z" />
    <glyph glyph-name="dagger" unicode="&#x2020;" horiz-adv-x="1085" 
d="M436 1366h221v-387h314l-53 -184h-261v-795h-221v795h-286v184h286v387z" />
    <glyph glyph-name="daggerdbl" unicode="&#x2021;" horiz-adv-x="1085" 
d="M662 373v-373h-222v373h-286v184h286v238h-286v184h286v387h222v-387h315l-53 -184h-262v-238h315l-53 -184h-262z" />
    <glyph glyph-name="bullet" unicode="&#x2022;" horiz-adv-x="760" 
d="M379 432q-46 0 -86.5 17.5t-71 48t-48 71t-17.5 86.5q0 47 17.5 88t48 71t71 47.5t86.5 17.5q47 0 88 -17.5t71.5 -47.5t48 -71t17.5 -88q0 -46 -17.5 -86.5t-48 -71t-71.5 -48t-88 -17.5z" />
    <glyph glyph-name="ellipsis" unicode="&#x2026;" horiz-adv-x="2048" 
d="M1708 -31q-28 0 -52.5 11t-43 29.5t-29 43.5t-10.5 53t10.5 53.5t29 44t43 29.5t52.5 11t53 -11t44 -29.5t29.5 -44t10.5 -53.5t-10.5 -53t-29.5 -43.5t-44 -29.5t-53 -11zM1026 -31q-29 0 -53.5 11t-43.5 29.5t-29.5 43.5t-10.5 53t10.5 53.5t29.5 44t43.5 29.5t53.5 11
q28 0 52.5 -11t43 -29.5t29 -44t10.5 -53.5t-10.5 -53t-29 -43.5t-43 -29.5t-52.5 -11zM342 -31q-29 0 -53.5 11t-43.5 29.5t-29.5 43.5t-10.5 53t10.5 53.5t29.5 44t43.5 29.5t53.5 11q28 0 52.5 -11t43 -29.5t29 -44t10.5 -53.5t-10.5 -53t-29 -43.5t-43 -29.5t-52.5 -11z
" />
    <glyph glyph-name="perthousand" unicode="&#x2030;" horiz-adv-x="2228" 
d="M1837 516q-59 0 -81.5 -45.5t-22.5 -132.5q0 -45 4.5 -78t16.5 -54.5t32 -32.5t51 -11q62 0 84.5 43t22.5 133q0 88 -23.5 133t-83.5 45zM1837 -14q-86 0 -144.5 29.5t-94.5 78.5t-52 112.5t-16 131.5q0 67 16.5 131t53 113.5t95 79.5t142.5 30t143 -30t96 -79.5
t53.5 -113.5t16.5 -131q0 -68 -16 -131.5t-52 -112.5t-95 -78.5t-146 -29.5zM391 1204q-59 0 -82.5 -45.5t-23.5 -132.5q0 -45 5 -78t17 -54.5t32.5 -32.5t51.5 -11q61 0 83 43.5t22 132.5q0 88 -23 133t-82 45zM1153 516q-59 0 -82.5 -45.5t-23.5 -132.5q0 -45 5 -78
t17 -54.5t32.5 -32.5t51.5 -11q62 0 84.5 43t22.5 133q0 88 -24 133t-83 45zM391 674q-87 0 -146 29.5t-95 78.5t-52 112.5t-16 131.5q0 67 16.5 131t53.5 113.5t96 79.5t143 30t142.5 -30t95 -79.5t53 -113.5t16.5 -131q0 -68 -15.5 -131.5t-51.5 -112.5t-95 -78.5
t-145 -29.5zM369 35l639 1372l168 -78l-641 -1372zM1153 -14q-86 0 -145 29.5t-95.5 78.5t-52.5 112.5t-16 131.5q0 67 16.5 131t53.5 113.5t96 79.5t143 30t143 -30t96 -79.5t53.5 -113.5t16.5 -131q0 -68 -16 -131.5t-52.5 -112.5t-95.5 -78.5t-145 -29.5z" />
    <glyph glyph-name="guilsinglleft" unicode="&#x2039;" horiz-adv-x="715" 
d="M604 199l-166 -125l-327 418l327 415l166 -125l-231 -290z" />
    <glyph glyph-name="guilsinglright" unicode="&#x203a;" horiz-adv-x="715" 
d="M111 782l165 125l328 -415l-328 -418l-165 125l231 293z" />
    <glyph glyph-name="fraction" unicode="&#x2044;" horiz-adv-x="815" 
d="M-215 -358l948 1878h211l-948 -1878h-211z" />
    <glyph glyph-name="fraction" unicode="&#x2215;" horiz-adv-x="815" 
d="M-215 -358l948 1878h211l-948 -1878h-211z" />
    <glyph glyph-name="Euro" unicode="&#x20ac;" horiz-adv-x="1147" 
d="M891 -29q-47 -3 -91.5 -2.5t-86.5 0.5q-121 0 -209.5 35t-149.5 97.5t-97.5 149.5t-53.5 191h-125v181h110q-3 58 0 116h-110v181h127q16 104 52 191t97 149.5t149.5 97.5t209.5 35q78 0 162.5 -8t189.5 -29l-25 -193q-100 16 -178 21.5t-149 5.5q-69 0 -117.5 -18
t-81.5 -52.5t-52.5 -85t-31.5 -114.5h586v-181h-604v-59v-57h604v-181h-586q11 -65 31 -115t53 -84.5t81.5 -52.5t117.5 -18q81 0 170.5 4t199.5 23l25 -191q-68 -18 -118.5 -26t-98.5 -11z" />
    <glyph glyph-name="trademark" unicode="&#x2122;" horiz-adv-x="1284" 
d="M369 1251v-413h-125v413h-131v115h403l-29 -115h-118zM971 1047l-74 -211h-109l-73 211l-25 -211h-127l62 530h112l105 -303l106 303h111l63 -530h-127z" />
    <glyph glyph-name="partialdiff" unicode="&#x2202;" 
d="M770 1352h-676v-1338h676v1338zM80 0v1366h704v-1366h-704z" />
    <glyph glyph-name="product" unicode="&#x220f;" 
d="M770 1352h-676v-1338h676v1338zM80 0v1366h704v-1366h-704z" />
    <glyph glyph-name="summation" unicode="&#x2211;" 
d="M770 1352h-676v-1338h676v1338zM80 0v1366h704v-1366h-704z" />
    <glyph glyph-name="minus" unicode="&#x2212;" horiz-adv-x="1229" 
d="M143 764h942v-172h-942v172z" />
    <glyph glyph-name="radical" unicode="&#x221a;" 
d="M770 1352h-676v-1338h676v1338zM80 0v1366h704v-1366h-704z" />
    <glyph glyph-name="infinity" unicode="&#x221e;" 
d="M770 1352h-676v-1338h676v1338zM80 0v1366h704v-1366h-704z" />
    <glyph glyph-name="integral" unicode="&#x222b;" 
d="M770 1352h-676v-1338h676v1338zM80 0v1366h704v-1366h-704z" />
    <glyph glyph-name="approxequal" unicode="&#x2248;" 
d="M770 1352h-676v-1338h676v1338zM80 0v1366h704v-1366h-704z" />
    <glyph glyph-name="notequal" unicode="&#x2260;" 
d="M770 1352h-676v-1338h676v1338zM80 0v1366h704v-1366h-704z" />
    <glyph glyph-name="lessequal" unicode="&#x2264;" 
d="M770 1352h-676v-1338h676v1338zM80 0v1366h704v-1366h-704z" />
    <glyph glyph-name="greaterequal" unicode="&#x2265;" 
d="M770 1352h-676v-1338h676v1338zM80 0v1366h704v-1366h-704z" />
    <glyph glyph-name="lozenge" unicode="&#x25ca;" 
d="M770 1352h-676v-1338h676v1338zM80 0v1366h704v-1366h-704z" />
    <glyph glyph-name="fi" unicode="&#xfb01;" horiz-adv-x="1073" 
d="M166 1040q0 80 17.5 139.5t46 101t66 68t77.5 41t79.5 20t73.5 5.5q26 0 53 -4.5t48.5 -10t35 -10l13.5 -4.5l-23 -174q-67 12 -112.5 11.5t-75.5 -10.5t-46.5 -28.5t-24.5 -42t-9.5 -50t-1.5 -52.5v-61h539v-979h-217v799h-322v-799h-217v799h-100v180h100v61v0z" />
    <glyph glyph-name="fl" unicode="&#xfb02;" horiz-adv-x="1079" 
d="M958 -39q-66 22 -113 45t-76.5 56t-43.5 81.5t-14 122.5v1141l217 45v-1196q0 -29 3.5 -49.5t12.5 -35.5t26 -27.5t44 -26.5l-56 -156v0zM166 1040q0 80 17.5 139.5t46 101t66 68t77.5 41t79.5 20t73.5 5.5q26 0 53 -4.5t48.5 -10t35 -10l13.5 -4.5l-23 -174
q-67 12 -112.5 11.5t-75.5 -10.5t-46.5 -28.5t-24.5 -42t-9.5 -50t-1.5 -52.5v-61h209l-51 -180h-158v-799h-217v799h-100v180h100v61v0z" />
    <glyph glyph-name="nonbreakingspace" horiz-adv-x="492" 
 />
    <glyph glyph-name="apple" 
d="M770 1352h-676v-1338h676v1338zM80 0v1366h704v-1366h-704z" />
    <glyph glyph-name="FL274" horiz-adv-x="1024" 
 />
    </font>
</defs>
</svg>
